<?xml version="1.0" encoding="UTF-8"?>
<!DOCTYPE svg PUBLIC "-//W3C//DTD SVG 1.1//EN" "http://www.w3.org/Graphics/SVG/1.1/DTD/svg11.dtd">
<svg xmlns="http://www.w3.org/2000/svg" version="1.1" width="623px" height="400px" style="shape-rendering:geometricPrecision; text-rendering:geometricPrecision; image-rendering:optimizeQuality; fill-rule:evenodd; clip-rule:evenodd" xmlns:xlink="http://www.w3.org/1999/xlink">
<g><path style="opacity:0.349" fill="#c3c3e1" d="M 301.5,8.5 C 293.475,8.88467 285.475,9.55134 277.5,10.5C 285.397,8.03586 293.397,7.3692 301.5,8.5 Z"/></g>
<g><path style="opacity:1" fill="#161764" d="M 301.5,8.5 C 301.5,9.16667 301.5,9.83333 301.5,10.5C 301.395,14.2583 302.395,17.5917 304.5,20.5C 304.32,24.2856 305.32,27.619 307.5,30.5C 307.5,30.8333 307.5,31.1667 307.5,31.5C 306.839,36.1679 308.839,38.1679 313.5,37.5C 314.5,37.5 315.5,37.5 316.5,37.5C 317.263,38.2679 318.263,38.7679 319.5,39C 323.486,39.4988 327.486,39.6655 331.5,39.5C 337.147,40.7747 342.98,41.7747 349,42.5C 350.07,42.472 350.903,42.1386 351.5,41.5C 353.408,40.5144 354.408,38.8477 354.5,36.5C 354.66,34.847 355.326,33.5137 356.5,32.5C 358.024,31.8262 359.358,30.8262 360.5,29.5C 361.478,29.9767 362.311,30.6433 363,31.5C 362.888,29.8217 362.388,28.155 361.5,26.5C 362.754,24.6663 363.421,22.6663 363.5,20.5C 363.66,18.847 364.326,17.5137 365.5,16.5C 369.5,17.5 373.5,18.5 377.5,19.5C 377.833,19.5 378.167,19.5 378.5,19.5C 379.287,21.1042 380.62,21.7709 382.5,21.5C 385.241,21.7073 387.574,22.7073 389.5,24.5C 390.514,25.6737 391.847,26.3404 393.5,26.5C 394.514,27.6737 395.847,28.3404 397.5,28.5C 401.151,29.6589 404.485,31.3256 407.5,33.5C 407.973,34.9063 408.973,35.573 410.5,35.5C 411.492,35.3284 412.158,35.6618 412.5,36.5C 412.678,37.6948 413.011,38.8615 413.5,40C 411.808,42.9353 411.142,46.1019 411.5,49.5C 408.666,53.6642 406.999,58.3308 406.5,63.5C 406.461,64.5832 406.127,65.5832 405.5,66.5C 406.193,67.5178 406.859,68.5178 407.5,69.5C 408.911,71.914 410.911,73.5806 413.5,74.5C 416.167,76.8333 418.833,79.1667 421.5,81.5C 422.048,83.3936 423.048,85.0603 424.5,86.5C 424.291,87.086 423.957,87.586 423.5,88C 425.518,88.5046 427.518,89.0046 429.5,89.5C 431.797,91.2941 433.963,93.2941 436,95.5C 437.33,94.4178 438.83,93.7512 440.5,93.5C 446.546,92.8107 451.879,90.4774 456.5,86.5C 459.327,86.4162 461.994,85.7496 464.5,84.5C 464.427,86.0269 465.094,87.0269 466.5,87.5C 466.427,89.0269 467.094,90.0269 468.5,90.5C 468.427,92.0269 469.094,93.0269 470.5,93.5C 470.738,95.4044 471.738,96.7377 473.5,97.5C 474.338,97.8417 474.672,98.5084 474.5,99.5C 474.427,101.027 475.094,102.027 476.5,102.5C 478.008,104.181 479.008,106.181 479.5,108.5C 479.427,110.027 480.094,111.027 481.5,111.5C 481.157,113.483 481.824,114.817 483.5,115.5C 485.065,117.509 486.065,119.843 486.5,122.5C 486.462,125.181 487.129,127.681 488.5,130C 488.257,130.902 487.923,131.735 487.5,132.5C 486.833,132.5 486.167,132.5 485.5,132.5C 482.472,134.506 479.139,135.84 475.5,136.5C 475.5,137.5 475.5,138.5 475.5,139.5C 473.801,139.34 472.134,139.506 470.5,140C 471.337,141.011 471.67,142.178 471.5,143.5C 469.519,145.144 467.519,146.81 465.5,148.5C 467.681,157.739 469.348,167.072 470.5,176.5C 470.38,180.042 470.714,183.542 471.5,187C 471.684,188.376 472.351,189.209 473.5,189.5C 473.611,190.117 473.944,190.617 474.5,191C 477.482,191.498 480.482,191.665 483.5,191.5C 485.735,191.205 487.735,191.539 489.5,192.5C 493.226,194.13 497.226,195.13 501.5,195.5C 501.5,203.167 501.5,210.833 501.5,218.5C 501.5,219.167 501.5,219.833 501.5,220.5C 499.97,227.67 498.636,235.004 497.5,242.5C 495.787,243.635 495.12,245.302 495.5,247.5C 484.833,247.5 474.167,247.5 463.5,247.5C 462.858,251.955 461.858,256.288 460.5,260.5C 460.672,261.492 460.338,262.158 459.5,262.5C 457.375,265.088 456.042,268.088 455.5,271.5C 454.773,273.954 453.773,276.287 452.5,278.5C 449.402,280.982 448.402,283.982 449.5,287.5C 449.427,289.027 450.094,290.027 451.5,290.5C 452.5,290.833 453.167,291.5 453.5,292.5C 455.094,295.764 457.427,298.431 460.5,300.5C 461.5,300.833 462.167,301.5 462.5,302.5C 464.167,305.167 465.833,307.833 467.5,310.5C 466.094,310.973 465.427,311.973 465.5,313.5C 464.5,314.167 463.5,314.833 462.5,315.5C 461.5,315.5 460.5,315.5 459.5,315.5C 459.66,317.199 459.494,318.866 459,320.5C 458.667,319.833 458.333,319.167 458,318.5C 455.828,320.084 454.161,322.084 453,324.5C 452.667,324.167 452.333,323.833 452,323.5C 451.503,325.81 451.337,328.143 451.5,330.5C 451.5,331.167 451.167,331.5 450.5,331.5C 449.262,330.588 447.928,330.421 446.5,331C 446.833,331.333 447.167,331.667 447.5,332C 446.151,332.772 445.318,333.939 445,335.5C 444.586,335.043 444.086,334.709 443.5,334.5C 442.3,335.531 440.966,336.365 439.5,337C 439.833,337.333 440.167,337.667 440.5,338C 439.552,338.483 438.552,338.649 437.5,338.5C 437.5,339.833 437.5,341.167 437.5,342.5C 436.127,342.343 434.793,342.51 433.5,343C 433.833,343.333 434.167,343.667 434.5,344C 433.027,344.71 432.36,345.876 432.5,347.5C 430.833,346.833 429.167,346.167 427.5,345.5C 426.738,343.738 425.404,342.738 423.5,342.5C 422.089,340.086 420.089,338.419 417.5,337.5C 416.738,335.738 415.404,334.738 413.5,334.5C 410.451,329.212 406.117,328.045 400.5,331C 401.684,332.145 401.684,333.312 400.5,334.5C 398.833,334.5 397.167,334.5 395.5,334.5C 395.5,335.5 395.5,336.5 395.5,337.5C 393.784,339.025 391.784,340.025 389.5,340.5C 387.973,340.427 386.973,341.094 386.5,342.5C 384.151,344.341 381.485,345.674 378.5,346.5C 376.973,346.427 375.973,347.094 375.5,348.5C 375.158,349.338 374.492,349.672 373.5,349.5C 371.05,349.874 370.05,351.374 370.5,354C 370.892,358.022 371.558,361.855 372.5,365.5C 373.414,368.728 373.747,372.061 373.5,375.5C 373.66,377.199 373.494,378.866 373,380.5C 370.706,381.422 368.539,382.422 366.5,383.5C 363.093,385.074 359.427,386.074 355.5,386.5C 350.523,386.581 345.857,387.581 341.5,389.5C 334.429,390.361 327.429,390.361 320.5,389.5C 319.596,388.791 319.263,387.791 319.5,386.5C 319.15,381.46 317.816,376.794 315.5,372.5C 314.566,371.432 314.232,370.099 314.5,368.5C 314.975,365.918 314.308,363.918 312.5,362.5C 308.1,360.896 303.434,360.229 298.5,360.5C 294.119,360.628 289.785,360.295 285.5,359.5C 282.45,358.065 279.117,357.398 275.5,357.5C 273.048,357.539 271.048,358.206 269.5,359.5C 268.416,362.004 267.083,364.337 265.5,366.5C 264.026,367.436 263.026,368.77 262.5,370.5C 261.167,370.5 259.833,370.5 258.5,370.5C 259.036,373.665 258.203,376.331 256,378.5C 255.517,377.552 255.351,376.552 255.5,375.5C 254.325,375.281 253.325,375.614 252.5,376.5C 253.853,377.524 254.52,378.857 254.5,380.5C 251.335,381.036 248.669,380.203 246.5,378C 240.961,375.949 235.294,374.449 229.5,373.5C 224.516,371.674 219.849,369.341 215.5,366.5C 215.027,365.094 214.027,364.427 212.5,364.5C 212.027,363.094 211.027,362.427 209.5,362.5C 207.748,362.582 206.748,361.749 206.5,360C 207.077,358.1 207.744,356.267 208.5,354.5C 210.213,353.365 210.88,351.698 210.5,349.5C 211.117,349.389 211.617,349.056 212,348.5C 213.484,344.553 214.65,340.553 215.5,336.5C 215.5,336.167 215.5,335.833 215.5,335.5C 217.273,334.686 217.773,333.352 217,331.5C 215.871,329.859 214.371,328.859 212.5,328.5C 210.833,327.5 209.5,326.167 208.5,324.5C 206.761,321.757 204.427,319.757 201.5,318.5C 198.5,316.167 195.833,313.5 193.5,310.5C 191.761,307.757 189.427,305.757 186.5,304.5C 183.406,305.213 180.406,306.213 177.5,307.5C 174.406,308.213 171.406,309.213 168.5,310.5C 165.113,310.788 161.946,311.788 159,313.5C 158,312.833 157,312.167 156,311.5C 155.47,307.41 153.303,304.743 149.5,303.5C 149.573,301.973 148.906,300.973 147.5,300.5C 145.917,298.337 144.584,296.004 143.5,293.5C 143.913,290.68 142.913,288.68 140.5,287.5C 140.34,285.847 139.674,284.514 138.5,283.5C 136.992,281.819 135.992,279.819 135.5,277.5C 135.598,275.447 134.931,273.78 133.5,272.5C 132.929,270.64 132.929,268.973 133.5,267.5C 133.973,266.094 134.973,265.427 136.5,265.5C 138.027,265.573 139.027,264.906 139.5,263.5C 141.147,261.674 143.147,260.34 145.5,259.5C 147.094,259.08 148.594,258.414 150,257.5C 150.945,257.905 151.612,258.572 152,259.5C 152.938,257.512 153.772,255.512 154.5,253.5C 156.722,253.441 157.722,252.275 157.5,250C 157.02,246.552 156.02,243.385 154.5,240.5C 153.549,239.081 153.216,237.415 153.5,235.5C 153.665,231.818 153.499,228.152 153,224.5C 152.272,221.813 151.105,219.48 149.5,217.5C 149.5,216.5 149.5,215.5 149.5,214.5C 149.756,212.208 149.423,210.041 148.5,208C 144.514,207.501 140.514,207.334 136.5,207.5C 136.167,207.5 135.833,207.5 135.5,207.5C 131.111,205.754 126.444,204.754 121.5,204.5C 120.5,204.5 119.5,204.5 118.5,204.5C 118.739,192.055 119.739,179.721 121.5,167.5C 123.373,163.485 124.373,159.151 124.5,154.5C 125.267,153.828 125.934,152.995 126.5,152C 131.155,151.501 135.821,151.334 140.5,151.5C 146.271,152.113 151.604,151.446 156.5,149.5C 156.557,148.391 156.89,147.391 157.5,146.5C 159.975,145.313 160.975,143.313 160.5,140.5C 160.66,138.847 161.326,137.514 162.5,136.5C 163.931,135.22 164.598,133.553 164.5,131.5C 165.326,128.515 166.659,125.849 168.5,123.5C 170.213,122.365 170.88,120.698 170.5,118.5C 172.104,117.713 172.771,116.38 172.5,114.5C 172.567,113.041 172.234,111.708 171.5,110.5C 170.833,107.833 169.167,106.167 166.5,105.5C 164.167,102.833 161.833,100.167 159.5,97.5C 159.167,95.1667 157.833,93.8333 155.5,93.5C 155.167,92.8333 154.833,92.1667 154.5,91.5C 154.833,90.1667 155.167,88.8333 155.5,87.5C 156.906,87.0269 157.573,86.0269 157.5,84.5C 159.587,83.4154 160.92,81.7488 161.5,79.5C 163.587,78.4154 164.92,76.7488 165.5,74.5C 167.167,73.5 168.5,72.1667 169.5,70.5C 174.833,65.8333 179.833,60.8333 184.5,55.5C 186.833,54.1667 189.167,52.8333 191.5,51.5C 192.818,55.0865 195.485,57.0865 199.5,57.5C 201.023,62.3497 204.356,65.0164 209.5,65.5C 210.401,67.3886 211.901,68.7219 214,69.5C 215.301,69.3613 216.134,68.6946 216.5,67.5C 217.514,66.3263 218.847,65.6596 220.5,65.5C 222.027,65.573 223.027,64.9063 223.5,63.5C 227.577,60.7728 231.91,58.4394 236.5,56.5C 241.271,56.2853 244.938,54.2853 247.5,50.5C 250.136,50.5088 251.469,49.1755 251.5,46.5C 251.14,43.2979 250.474,40.2979 249.5,37.5C 248.728,33.5483 248.395,29.5483 248.5,25.5C 247.836,21.4094 249.17,18.4094 252.5,16.5C 255.495,16.7062 258.162,16.0395 260.5,14.5C 262.905,13.2318 265.572,12.5651 268.5,12.5C 271.781,12.5797 274.781,11.913 277.5,10.5C 285.475,9.55134 293.475,8.88467 301.5,8.5 Z M 303.5,97.5 C 313.568,97.2815 323.568,97.9481 333.5,99.5C 336.55,101.101 339.884,102.101 343.5,102.5C 345.936,103.871 348.603,104.871 351.5,105.5C 355.182,108.008 359.182,110.008 363.5,111.5C 364.29,112.401 365.29,113.068 366.5,113.5C 366.973,114.906 367.973,115.573 369.5,115.5C 369.973,116.906 370.973,117.573 372.5,117.5C 373.262,119.262 374.596,120.262 376.5,120.5C 376.833,121.5 377.5,122.167 378.5,122.5C 379.833,124.5 381.5,126.167 383.5,127.5C 384.5,129.167 385.833,130.5 387.5,131.5C 388.026,133.23 389.026,134.564 390.5,135.5C 392.147,138.473 394.147,141.14 396.5,143.5C 396.75,145.674 397.75,147.341 399.5,148.5C 401.186,151.872 402.853,155.205 404.5,158.5C 405.459,162.383 406.792,166.05 408.5,169.5C 408.595,171.786 409.262,173.786 410.5,175.5C 410.216,177.415 410.549,179.081 411.5,180.5C 412.743,192.839 412.743,205.172 411.5,217.5C 410.518,220.763 409.851,224.097 409.5,227.5C 407.598,231.655 405.931,235.989 404.5,240.5C 402.895,243.378 401.561,246.378 400.5,249.5C 398.75,250.659 397.75,252.326 397.5,254.5C 396.094,254.973 395.427,255.973 395.5,257.5C 394.094,257.973 393.427,258.973 393.5,260.5C 391.738,261.262 390.738,262.596 390.5,264.5C 385.167,269.167 380.167,274.167 375.5,279.5C 373.596,279.738 372.262,280.738 371.5,282.5C 369.973,282.427 368.973,283.094 368.5,284.5C 365.489,285.669 362.822,287.336 360.5,289.5C 354.214,292.482 347.881,295.149 341.5,297.5C 338.848,297.41 336.515,298.076 334.5,299.5C 329.5,300.167 324.5,300.833 319.5,301.5C 311.458,301.736 303.458,301.403 295.5,300.5C 294.5,300.5 293.5,300.5 292.5,300.5C 287.728,298.722 282.728,297.389 277.5,296.5C 272.992,294.324 268.325,292.324 263.5,290.5C 260.869,288.847 258.203,287.181 255.5,285.5C 255.158,284.662 254.492,284.328 253.5,284.5C 251.54,282.844 249.54,281.177 247.5,279.5C 246.167,278.5 244.833,277.5 243.5,276.5C 239.5,271.833 235.167,267.5 230.5,263.5C 230.573,261.973 229.906,260.973 228.5,260.5C 228.573,258.973 227.906,257.973 226.5,257.5C 226.068,256.29 225.401,255.29 224.5,254.5C 224.573,252.973 223.906,251.973 222.5,251.5C 220.403,246.311 218.07,241.311 215.5,236.5C 215.02,233.557 214.02,230.89 212.5,228.5C 212.435,225.572 211.768,222.905 210.5,220.5C 210.721,217.721 210.388,215.054 209.5,212.5C 209.34,201.146 209.674,189.813 210.5,178.5C 211.768,176.095 212.435,173.428 212.5,170.5C 214.409,166.334 216.075,162.001 217.5,157.5C 219.659,154.516 221.325,151.183 222.5,147.5C 223.906,147.027 224.573,146.027 224.5,144.5C 226.522,142.469 228.189,140.135 229.5,137.5C 230.906,137.027 231.573,136.027 231.5,134.5C 237.526,128.805 243.526,123.139 249.5,117.5C 251.027,117.573 252.027,116.906 252.5,115.5C 255.869,113.485 259.202,111.485 262.5,109.5C 264.027,109.573 265.027,108.906 265.5,107.5C 269.987,106.008 274.32,104.342 278.5,102.5C 282.048,101.87 285.381,100.87 288.5,99.5C 293.53,99.0195 298.53,98.3529 303.5,97.5 Z M 313.5,169.5 C 323.859,171.343 331.859,176.676 337.5,185.5C 337.796,187.403 338.463,189.07 339.5,190.5C 340.833,196.5 340.833,202.5 339.5,208.5C 338.227,210.713 337.227,213.046 336.5,215.5C 335.094,215.973 334.427,216.973 334.5,218.5C 332.5,219.833 330.833,221.5 329.5,223.5C 327.973,223.427 326.973,224.094 326.5,225.5C 323.982,226.264 321.649,227.264 319.5,228.5C 315.202,229.2 310.869,229.533 306.5,229.5C 304.401,228.388 302.067,227.721 299.5,227.5C 296.523,225.533 293.523,223.533 290.5,221.5C 289.833,220.167 288.833,219.167 287.5,218.5C 287.262,216.596 286.262,215.262 284.5,214.5C 283.497,211.15 282.497,207.817 281.5,204.5C 281.413,199.463 281.746,194.463 282.5,189.5C 284.071,187.365 285.404,185.032 286.5,182.5C 287.906,182.027 288.573,181.027 288.5,179.5C 290.191,178.136 291.858,176.803 293.5,175.5C 296.899,173.801 300.232,172.134 303.5,170.5C 306.86,170.384 310.193,170.051 313.5,169.5 Z"/></g>
<g><path style="opacity:0.737" fill="#9292b8" d="M 277.5,10.5 C 274.781,11.913 271.781,12.5797 268.5,12.5C 271.219,11.087 274.219,10.4203 277.5,10.5 Z"/></g>
<g><path style="opacity:0.871" fill="#8181ad" d="M 260.5,14.5 C 258.162,16.0395 255.495,16.7062 252.5,16.5C 254.905,15.2318 257.572,14.5651 260.5,14.5 Z"/></g>
<g><path style="opacity:0.329" fill="#bfbfda" d="M 365.5,16.5 C 369.772,15.8014 373.772,16.8014 377.5,19.5C 373.5,18.5 369.5,17.5 365.5,16.5 Z"/></g>
<g><path style="opacity:0.604" fill="#9496bd" d="M 301.5,10.5 C 303.277,13.5046 304.277,16.8379 304.5,20.5C 302.395,17.5917 301.395,14.2583 301.5,10.5 Z"/></g>
<g><path style="opacity:0.471" fill="#aeafca" d="M 378.5,19.5 C 380.153,19.6596 381.486,20.3263 382.5,21.5C 380.62,21.7709 379.287,21.1042 378.5,19.5 Z"/></g>
<g><path style="opacity:0.333" fill="#b2b2d1" d="M 252.5,16.5 C 249.17,18.4094 247.836,21.4094 248.5,25.5C 247.2,22.9759 247.2,20.3092 248.5,17.5C 249.736,16.7542 251.07,16.4208 252.5,16.5 Z"/></g>
<g><path style="opacity:0.855" fill="#9998bd" d="M 304.5,20.5 C 306.101,23.5502 307.101,26.8835 307.5,30.5C 305.32,27.619 304.32,24.2856 304.5,20.5 Z"/></g>
<g><path style="opacity:0.208" fill="#bdbfdd" d="M 389.5,24.5 C 391.38,24.2291 392.713,24.8958 393.5,26.5C 391.847,26.3404 390.514,25.6737 389.5,24.5 Z"/></g>
<g><path style="opacity:0.298" fill="#abadcb" d="M 393.5,26.5 C 395.38,26.2291 396.713,26.8958 397.5,28.5C 395.847,28.3404 394.514,27.6737 393.5,26.5 Z"/></g>
<g><path style="opacity:1" fill="#463f79" d="M 363.5,20.5 C 363.421,22.6663 362.754,24.6663 361.5,26.5C 362.388,28.155 362.888,29.8217 363,31.5C 362.311,30.6433 361.478,29.9767 360.5,29.5C 359.358,30.8262 358.024,31.8262 356.5,32.5C 358.043,27.9758 360.377,23.9758 363.5,20.5 Z"/></g>
<g><path style="opacity:0.169" fill="#c6c3e0" d="M 407.5,33.5 C 409.027,33.427 410.027,34.0937 410.5,35.5C 408.973,35.573 407.973,34.9063 407.5,33.5 Z"/></g>
<g><path style="opacity:0.388" fill="#a0a2c1" d="M 307.5,31.5 C 308.339,32.6412 309.006,33.9745 309.5,35.5C 310.949,36.1719 312.282,36.8386 313.5,37.5C 308.839,38.1679 306.839,36.1679 307.5,31.5 Z"/></g>
<g><path style="opacity:0.643" fill="#8c8caf" d="M 316.5,37.5 C 321.68,37.8468 326.68,38.5135 331.5,39.5C 327.486,39.6655 323.486,39.4988 319.5,39C 318.263,38.7679 317.263,38.2679 316.5,37.5 Z"/></g>
<g><path style="opacity:0.024" fill="#c1c0dc" d="M 331.5,39.5 C 338.237,39.6561 344.903,40.3228 351.5,41.5C 350.903,42.1386 350.07,42.472 349,42.5C 342.98,41.7747 337.147,40.7747 331.5,39.5 Z"/></g>
<g><path style="opacity:1" fill="#63628d" d="M 354.5,36.5 C 354.408,38.8477 353.408,40.5144 351.5,41.5C 351.75,39.326 352.75,37.6594 354.5,36.5 Z"/></g>
<g><path style="opacity:1" fill="#66638e" d="M 412.5,36.5 C 413.87,36.8565 414.87,37.6898 415.5,39C 414.433,42.7163 413.099,46.2163 411.5,49.5C 411.142,46.1019 411.808,42.9353 413.5,40C 413.011,38.8615 412.678,37.6948 412.5,36.5 Z"/></g>
<g><path style="opacity:0.478" fill="#9698b8" d="M 249.5,37.5 C 250.474,40.2979 251.14,43.2979 251.5,46.5C 251.469,49.1755 250.136,50.5088 247.5,50.5C 248.714,49.3744 249.714,48.0411 250.5,46.5C 249.698,43.5514 249.364,40.5514 249.5,37.5 Z"/></g>
<g><path style="opacity:0.886" fill="#71719b" d="M 191.5,51.5 C 189.167,52.8333 186.833,54.1667 184.5,55.5C 186.086,52.139 188.419,50.8056 191.5,51.5 Z"/></g>
<g><path style="opacity:1" fill="#60598c" d="M 191.5,51.5 C 194.473,53.1468 197.14,55.1468 199.5,57.5C 195.485,57.0865 192.818,55.0865 191.5,51.5 Z"/></g>
<g><path style="opacity:1" fill="#4b467c" d="M 247.5,50.5 C 244.938,54.2853 241.271,56.2853 236.5,56.5C 239.678,53.7417 243.345,51.7417 247.5,50.5 Z"/></g>
<g><path style="opacity:0.098" fill="#b3b3d3" d="M 411.5,49.5 C 410.354,54.4379 408.687,59.1046 406.5,63.5C 406.999,58.3308 408.666,53.6642 411.5,49.5 Z"/></g>
<g><path style="opacity:1" fill="#514a81" d="M 199.5,57.5 C 203.146,59.8171 206.48,62.4838 209.5,65.5C 204.356,65.0164 201.023,62.3497 199.5,57.5 Z"/></g>
<g><path style="opacity:0.753" fill="#8889ab" d="M 184.5,55.5 C 179.833,60.8333 174.833,65.8333 169.5,70.5C 173.5,64.5 178.5,59.5 184.5,55.5 Z"/></g>
<g><path style="opacity:0.643" fill="#a7a7c7" d="M 223.5,63.5 C 223.027,64.9063 222.027,65.573 220.5,65.5C 220.973,64.0937 221.973,63.427 223.5,63.5 Z"/></g>
<g><path style="opacity:0.525" fill="#8182b0" d="M 209.5,65.5 C 211.229,66.1175 212.729,67.1175 214,68.5C 214.671,67.7476 215.504,67.4142 216.5,67.5C 216.134,68.6946 215.301,69.3613 214,69.5C 211.901,68.7219 210.401,67.3886 209.5,65.5 Z"/></g>
<g><path style="opacity:0.008" fill="#bfc1d9" d="M 407.5,69.5 C 410.089,70.4194 412.089,72.086 413.5,74.5C 410.911,73.5806 408.911,71.914 407.5,69.5 Z"/></g>
<g><path style="opacity:0.545" fill="#abacc4" d="M 169.5,70.5 C 168.5,72.1667 167.167,73.5 165.5,74.5C 165.833,72.1667 167.167,70.8333 169.5,70.5 Z"/></g>
<g><path style="opacity:0.6" fill="#9a99bd" d="M 165.5,74.5 C 164.92,76.7488 163.587,78.4154 161.5,79.5C 162.08,77.2512 163.413,75.5846 165.5,74.5 Z"/></g>
<g><path style="opacity:0.569" fill="#9a9abf" d="M 161.5,79.5 C 160.92,81.7488 159.587,83.4154 157.5,84.5C 158.08,82.2512 159.413,80.5846 161.5,79.5 Z"/></g>
<g><path style="opacity:0.933" fill="#6a6a93" d="M 464.5,84.5 C 461.994,85.7496 459.327,86.4162 456.5,86.5C 458.954,84.3368 461.62,83.6701 464.5,84.5 Z"/></g>
<g><path style="opacity:0.506" fill="#9094b6" d="M 157.5,84.5 C 157.573,86.0269 156.906,87.0269 155.5,87.5C 155.427,85.9731 156.094,84.9731 157.5,84.5 Z"/></g>
<g><path style="opacity:0.365" fill="#b6b5d1" d="M 464.5,84.5 C 465.906,84.9731 466.573,85.9731 466.5,87.5C 465.094,87.0269 464.427,86.0269 464.5,84.5 Z"/></g>
<g><path style="opacity:1" fill="#706a9b" d="M 421.5,81.5 C 424.5,83.8333 427.167,86.5 429.5,89.5C 427.518,89.0046 425.518,88.5046 423.5,88C 423.957,87.586 424.291,87.086 424.5,86.5C 423.048,85.0603 422.048,83.3936 421.5,81.5 Z"/></g>
<g><path style="opacity:0.573" fill="#a3a2c0" d="M 155.5,87.5 C 155.167,88.8333 154.833,90.1667 154.5,91.5C 152.14,90.0924 152.474,88.7591 155.5,87.5 Z"/></g>
<g><path style="opacity:0.506" fill="#9899be" d="M 466.5,87.5 C 467.906,87.9731 468.573,88.9731 468.5,90.5C 467.094,90.0269 466.427,89.0269 466.5,87.5 Z"/></g>
<g><path style="opacity:0.992" fill="#585484" d="M 456.5,86.5 C 451.879,90.4774 446.546,92.8107 440.5,93.5C 445.531,90.6554 450.864,88.3221 456.5,86.5 Z"/></g>
<g><path style="opacity:0.604" fill="#8886ad" d="M 468.5,90.5 C 469.906,90.9731 470.573,91.9731 470.5,93.5C 469.094,93.0269 468.427,92.0269 468.5,90.5 Z"/></g>
<g><path style="opacity:0.463" fill="#babbd2" d="M 155.5,93.5 C 157.833,93.8333 159.167,95.1667 159.5,97.5C 157.833,96.5 156.5,95.1667 155.5,93.5 Z"/></g>
<g><path style="opacity:0.561" fill="#9e9cc6" d="M 470.5,93.5 C 472.262,94.2623 473.262,95.5956 473.5,97.5C 471.738,96.7377 470.738,95.4044 470.5,93.5 Z"/></g>
<g><path style="opacity:0.863" fill="#6e6d9b" d="M 303.5,97.5 C 309.987,96.346 316.654,96.1794 323.5,97C 327.09,97.3106 330.423,98.144 333.5,99.5C 323.568,97.9481 313.568,97.2815 303.5,97.5 Z"/></g>
<g><path style="opacity:0.604" fill="#a8a9c9" d="M 333.5,99.5 C 337.214,99.5902 340.548,100.59 343.5,102.5C 339.884,102.101 336.55,101.101 333.5,99.5 Z"/></g>
<g><path style="opacity:0.157" fill="#bcbcdb" d="M 288.5,99.5 C 285.381,100.87 282.048,101.87 278.5,102.5C 278.5,102.167 278.5,101.833 278.5,101.5C 281.698,100.213 285.031,99.5465 288.5,99.5 Z"/></g>
<g><path style="opacity:0.224" fill="#bcbcd6" d="M 474.5,99.5 C 475.906,99.9731 476.573,100.973 476.5,102.5C 475.094,102.027 474.427,101.027 474.5,99.5 Z"/></g>
<g><path style="opacity:1" fill="#565082" d="M 278.5,101.5 C 278.5,101.833 278.5,102.167 278.5,102.5C 274.32,104.342 269.987,106.008 265.5,107.5C 265.944,105.887 266.944,104.72 268.5,104C 271.777,102.857 275.11,102.023 278.5,101.5 Z"/></g>
<g><path style="opacity:0.584" fill="#a8a7c5" d="M 166.5,105.5 C 169.167,106.167 170.833,107.833 171.5,110.5C 169.5,109.167 167.833,107.5 166.5,105.5 Z"/></g>
<g><path style="opacity:0.024" fill="#bed1e6" d="M 265.5,107.5 C 265.027,108.906 264.027,109.573 262.5,109.5C 262.973,108.094 263.973,107.427 265.5,107.5 Z"/></g>
<g><path style="opacity:1" fill="#595486" d="M 351.5,105.5 C 355.75,105.791 359.75,106.957 363.5,109C 362.402,109.77 362.402,110.603 363.5,111.5C 359.182,110.008 355.182,108.008 351.5,105.5 Z"/></g>
<g><path style="opacity:0.314" fill="#b4b2c9" d="M 479.5,108.5 C 480.906,108.973 481.573,109.973 481.5,111.5C 480.094,111.027 479.427,110.027 479.5,108.5 Z"/></g>
<g><path style="opacity:0.392" fill="#aeafca" d="M 366.5,113.5 C 368.027,113.427 369.027,114.094 369.5,115.5C 367.973,115.573 366.973,114.906 366.5,113.5 Z"/></g>
<g><path style="opacity:0.969" fill="#7e7da2" d="M 481.5,111.5 C 482.674,112.514 483.34,113.847 483.5,115.5C 481.824,114.817 481.157,113.483 481.5,111.5 Z"/></g>
<g><path style="opacity:0.02" fill="#d3d3e9" d="M 250.5,115.5 C 251.167,115.5 251.833,115.5 252.5,115.5C 252.027,116.906 251.027,117.573 249.5,117.5C 249.833,116.833 250.167,116.167 250.5,115.5 Z"/></g>
<g><path style="opacity:0.459" fill="#9b9cbe" d="M 369.5,115.5 C 371.027,115.427 372.027,116.094 372.5,117.5C 370.973,117.573 369.973,116.906 369.5,115.5 Z"/></g>
<g><path style="opacity:0.165" fill="#cad4ec" d="M 172.5,114.5 C 172.771,116.38 172.104,117.713 170.5,118.5C 170.66,116.847 171.326,115.514 172.5,114.5 Z"/></g>
<g><path style="opacity:0.816" fill="#8b8baf" d="M 372.5,117.5 C 374.404,117.738 375.738,118.738 376.5,120.5C 374.596,120.262 373.262,119.262 372.5,117.5 Z"/></g>
<g><path style="opacity:0.902" fill="#8c8ab5" d="M 170.5,118.5 C 170.88,120.698 170.213,122.365 168.5,123.5C 168.796,121.597 169.463,119.93 170.5,118.5 Z"/></g>
<g><path style="opacity:1" fill="#423b79" d="M 250.5,115.5 C 250.167,116.167 249.833,116.833 249.5,117.5C 243.526,123.139 237.526,128.805 231.5,134.5C 231.167,134.5 230.833,134.5 230.5,134.5C 229.073,132.1 229.573,131.433 232,132.5C 232.746,128.914 234.246,125.748 236.5,123C 238.953,122.273 241.286,121.273 243.5,120C 242.167,118.16 242.334,117.66 244,118.5C 244.667,117.167 245.333,115.833 246,114.5C 247.356,115.38 248.856,115.714 250.5,115.5 Z"/></g>
<g><path style="opacity:0.831" fill="#8886af" d="M 378.5,122.5 C 381.167,123.167 382.833,124.833 383.5,127.5C 381.5,126.167 379.833,124.5 378.5,122.5 Z"/></g>
<g><path style="opacity:0.035" fill="#acacce" d="M 324.5,127.5 C 331.796,128.264 338.463,130.597 344.5,134.5C 337.76,132.143 331.093,129.81 324.5,127.5 Z"/></g>
<g><path style="opacity:0.753" fill="#9b9bbc" d="M 297.5,127.5 C 295.162,129.04 292.495,129.706 289.5,129.5C 291.838,127.96 294.505,127.294 297.5,127.5 Z"/></g>
<g><path style="opacity:1" fill="#161764" d="M 324.5,127.5 C 331.093,129.81 337.76,132.143 344.5,134.5C 346.153,134.66 347.486,135.326 348.5,136.5C 348.973,137.906 349.973,138.573 351.5,138.5C 351.973,139.906 352.973,140.573 354.5,140.5C 355.5,140.833 356.167,141.5 356.5,142.5C 357.27,144.935 358.937,146.269 361.5,146.5C 363.094,149.764 365.427,152.431 368.5,154.5C 368.738,156.404 369.738,157.738 371.5,158.5C 373.588,160.336 374.921,162.669 375.5,165.5C 375.66,167.153 376.326,168.486 377.5,169.5C 378.931,170.78 379.598,172.447 379.5,174.5C 379.723,178.162 380.723,181.495 382.5,184.5C 382.957,197.288 382.29,209.955 380.5,222.5C 380.737,223.791 380.404,224.791 379.5,225.5C 377.375,228.088 376.042,231.088 375.5,234.5C 374.094,234.973 373.427,235.973 373.5,237.5C 372.66,239.853 371.326,241.853 369.5,243.5C 368.5,243.833 367.833,244.5 367.5,245.5C 365.863,244.782 364.197,244.616 362.5,245C 362.833,245.333 363.167,245.667 363.5,246C 361.808,247.401 361.141,249.234 361.5,251.5C 359.712,251.215 358.045,251.548 356.5,252.5C 356.833,253.167 357.167,253.833 357.5,254.5C 355.604,255.466 353.604,255.799 351.5,255.5C 351.5,257.167 351.5,258.833 351.5,260.5C 349.011,260.241 347.344,261.241 346.5,263.5C 344.151,265.341 341.485,266.674 338.5,267.5C 336.5,267.833 334.5,268.167 332.5,268.5C 320.27,270.313 307.936,270.98 295.5,270.5C 290.874,268.957 286.207,267.624 281.5,266.5C 278.843,266.065 276.509,265.065 274.5,263.5C 274.027,262.094 273.027,261.427 271.5,261.5C 270.738,259.738 269.404,258.738 267.5,258.5C 266.415,256.413 264.749,255.08 262.5,254.5C 259.5,252.167 256.833,249.5 254.5,246.5C 253.864,244.205 252.531,242.539 250.5,241.5C 249.662,241.158 249.328,240.492 249.5,239.5C 249.105,235.703 247.438,232.703 244.5,230.5C 245.221,224.996 243.554,220.329 239.5,216.5C 239.5,216.167 239.5,215.833 239.5,215.5C 238.167,204.833 238.167,194.167 239.5,183.5C 240.924,181.485 241.59,179.152 241.5,176.5C 241.5,176.167 241.5,175.833 241.5,175.5C 244.469,173.38 245.802,170.38 245.5,166.5C 247.408,165.514 248.408,163.848 248.5,161.5C 249.906,161.027 250.573,160.027 250.5,158.5C 251.906,158.027 252.573,157.027 252.5,155.5C 254.587,154.415 255.92,152.749 256.5,150.5C 259.948,145.713 264.281,142.046 269.5,139.5C 271.027,139.573 272.027,138.906 272.5,137.5C 274.027,137.573 275.027,136.906 275.5,135.5C 275.842,134.662 276.508,134.328 277.5,134.5C 282.001,133.913 286.001,132.246 289.5,129.5C 292.495,129.706 295.162,129.04 297.5,127.5C 306.628,126.21 315.628,126.21 324.5,127.5 Z M 313.5,169.5 C 323.859,171.343 331.859,176.676 337.5,185.5C 337.796,187.403 338.463,189.07 339.5,190.5C 340.833,196.5 340.833,202.5 339.5,208.5C 338.227,210.713 337.227,213.046 336.5,215.5C 335.094,215.973 334.427,216.973 334.5,218.5C 332.5,219.833 330.833,221.5 329.5,223.5C 327.973,223.427 326.973,224.094 326.5,225.5C 323.982,226.264 321.649,227.264 319.5,228.5C 315.202,229.2 310.869,229.533 306.5,229.5C 304.401,228.388 302.067,227.721 299.5,227.5C 296.523,225.533 293.523,223.533 290.5,221.5C 289.833,220.167 288.833,219.167 287.5,218.5C 287.262,216.596 286.262,215.262 284.5,214.5C 283.497,211.15 282.497,207.817 281.5,204.5C 281.413,199.463 281.746,194.463 282.5,189.5C 284.071,187.365 285.404,185.032 286.5,182.5C 287.906,182.027 288.573,181.027 288.5,179.5C 290.191,178.136 291.858,176.803 293.5,175.5C 296.899,173.801 300.232,172.134 303.5,170.5C 306.86,170.384 310.193,170.051 313.5,169.5 Z"/></g>
<g><path style="opacity:0.506" fill="#9594b2" d="M 486.5,122.5 C 488.006,124.975 489.339,127.642 490.5,130.5C 489.995,131.919 488.995,132.585 487.5,132.5C 487.923,131.735 488.257,130.902 488.5,130C 487.129,127.681 486.462,125.181 486.5,122.5 Z"/></g>
<g><path style="opacity:0.961" fill="#6a6895" d="M 289.5,129.5 C 286.001,132.246 282.001,133.913 277.5,134.5C 281.111,132.069 285.111,130.403 289.5,129.5 Z"/></g>
<g><path style="opacity:0.533" fill="#9694b9" d="M 387.5,131.5 C 389.446,132.035 390.446,133.368 390.5,135.5C 389.026,134.564 388.026,133.23 387.5,131.5 Z"/></g>
<g><path style="opacity:0.02" fill="#d9d9ed" d="M 485.5,132.5 C 486.167,132.5 486.833,132.5 487.5,132.5C 487.027,133.906 486.027,134.573 484.5,134.5C 484.833,133.833 485.167,133.167 485.5,132.5 Z"/></g>
<g><path style="opacity:0.133" fill="#cfcfe8" d="M 164.5,131.5 C 164.598,133.553 163.931,135.22 162.5,136.5C 162.402,134.447 163.069,132.78 164.5,131.5 Z"/></g>
<g><path style="opacity:0.012" fill="#cac9e0" d="M 230.5,134.5 C 230.833,134.5 231.167,134.5 231.5,134.5C 231.573,136.027 230.906,137.027 229.5,137.5C 229.557,136.391 229.89,135.391 230.5,134.5 Z"/></g>
<g><path style="opacity:0.651" fill="#9fa1c0" d="M 275.5,135.5 C 275.027,136.906 274.027,137.573 272.5,137.5C 272.973,136.094 273.973,135.427 275.5,135.5 Z"/></g>
<g><path style="opacity:1" fill="#65628c" d="M 390.5,135.5 C 394.404,136.608 396.404,139.275 396.5,143.5C 394.147,141.14 392.147,138.473 390.5,135.5 Z"/></g>
<g><path style="opacity:1" fill="#575286" d="M 485.5,132.5 C 485.167,133.167 484.833,133.833 484.5,134.5C 480.465,137.857 476.132,140.857 471.5,143.5C 471.67,142.178 471.337,141.011 470.5,140C 472.134,139.506 473.801,139.34 475.5,139.5C 475.5,138.5 475.5,137.5 475.5,136.5C 479.139,135.84 482.472,134.506 485.5,132.5 Z"/></g>
<g><path style="opacity:0.129" fill="#c9c8e8" d="M 348.5,136.5 C 350.027,136.427 351.027,137.094 351.5,138.5C 349.973,138.573 348.973,137.906 348.5,136.5 Z"/></g>
<g><path style="opacity:0.722" fill="#8686af" d="M 272.5,137.5 C 272.027,138.906 271.027,139.573 269.5,139.5C 269.973,138.094 270.973,137.427 272.5,137.5 Z"/></g>
<g><path style="opacity:0.004" fill="#cdd0e4" d="M 351.5,138.5 C 353.027,138.427 354.027,139.094 354.5,140.5C 352.973,140.573 351.973,139.906 351.5,138.5 Z"/></g>
<g><path style="opacity:1" fill="#4c467e" d="M 230.5,134.5 C 229.89,135.391 229.557,136.391 229.5,137.5C 228.189,140.135 226.522,142.469 224.5,144.5C 224.668,141.243 225.668,138.243 227.5,135.5C 228.325,134.614 229.325,134.281 230.5,134.5 Z"/></g>
<g><path style="opacity:0.929" fill="#817fa7" d="M 160.5,140.5 C 160.975,143.313 159.975,145.313 157.5,146.5C 158.508,144.456 159.508,142.456 160.5,140.5 Z"/></g>
<g><path style="opacity:0.663" fill="#8b8aaf" d="M 356.5,142.5 C 358.749,143.08 360.415,144.413 361.5,146.5C 358.937,146.269 357.27,144.935 356.5,142.5 Z"/></g>
<g><path style="opacity:0.192" fill="#c2c0dc" d="M 396.5,143.5 C 398.25,144.659 399.25,146.326 399.5,148.5C 397.75,147.341 396.75,145.674 396.5,143.5 Z"/></g>
<g><path style="opacity:0.149" fill="#c5c3e0" d="M 224.5,144.5 C 224.573,146.027 223.906,147.027 222.5,147.5C 222.427,145.973 223.094,144.973 224.5,144.5 Z"/></g>
<g><path style="opacity:0.769" fill="#999ab8" d="M 361.5,146.5 C 364.573,148.569 366.906,151.236 368.5,154.5C 365.427,152.431 363.094,149.764 361.5,146.5 Z"/></g>
<g><path style="opacity:0.924" fill="#65618d" d="M 140.5,150.5 C 140.5,150.833 140.5,151.167 140.5,151.5C 135.821,151.334 131.155,151.501 126.5,152C 125.934,152.995 125.267,153.828 124.5,154.5C 124.286,152.856 124.62,151.356 125.5,150C 130.537,149.337 135.537,149.504 140.5,150.5 Z"/></g>
<g><path style="opacity:0.455" fill="#8789ab" d="M 156.5,149.5 C 151.604,151.446 146.271,152.113 140.5,151.5C 140.5,151.167 140.5,150.833 140.5,150.5C 145.927,150.782 151.26,150.449 156.5,149.5 Z"/></g>
<g><path style="opacity:0.486" fill="#afaecb" d="M 256.5,150.5 C 255.92,152.749 254.587,154.415 252.5,155.5C 253.08,153.251 254.413,151.585 256.5,150.5 Z"/></g>
<g><path style="opacity:0.553" fill="#9b9bbe" d="M 368.5,154.5 C 370.262,155.262 371.262,156.596 371.5,158.5C 369.738,157.738 368.738,156.404 368.5,154.5 Z"/></g>
<g><path style="opacity:0.502" fill="#adafcc" d="M 124.5,154.5 C 124.373,159.151 123.373,163.485 121.5,167.5C 121.74,162.88 122.74,158.547 124.5,154.5 Z"/></g>
<g><path style="opacity:0.529" fill="#9b9cba" d="M 252.5,155.5 C 252.573,157.027 251.906,158.027 250.5,158.5C 250.427,156.973 251.094,155.973 252.5,155.5 Z"/></g>
<g><path style="opacity:0.173" fill="#b2b3d0" d="M 217.5,157.5 C 216.075,162.001 214.409,166.334 212.5,170.5C 212.807,165.57 214.473,161.237 217.5,157.5 Z"/></g>
<g><path style="opacity:0.58" fill="#8687ab" d="M 250.5,158.5 C 250.573,160.027 249.906,161.027 248.5,161.5C 248.427,159.973 249.094,158.973 250.5,158.5 Z"/></g>
<g><path style="opacity:0.212" fill="#c5c3e1" d="M 404.5,158.5 C 407,161.66 408.333,165.327 408.5,169.5C 406.792,166.05 405.459,162.383 404.5,158.5 Z"/></g>
<g><path style="opacity:0.98" fill="#716e9a" d="M 248.5,161.5 C 248.408,163.848 247.408,165.514 245.5,166.5C 245.75,164.326 246.75,162.659 248.5,161.5 Z"/></g>
<g><path style="opacity:0.2" fill="#b6b6d4" d="M 375.5,165.5 C 377.104,166.287 377.771,167.62 377.5,169.5C 376.326,168.486 375.66,167.153 375.5,165.5 Z"/></g>
<g><path style="opacity:0.294" fill="#a2a1c3" d="M 303.5,170.5 C 300.232,172.134 296.899,173.801 293.5,175.5C 293.5,174.5 293.5,173.5 293.5,172.5C 296.833,171.833 300.167,171.167 303.5,170.5 Z"/></g>
<g><path style="opacity:1" fill="#3d3773" d="M 313.5,169.5 C 318.782,168.647 323.448,169.814 327.5,173C 328.793,173.49 330.127,173.657 331.5,173.5C 333.167,168.167 334.833,168.167 336.5,173.5C 335.5,173.5 334.5,173.5 333.5,173.5C 334.833,177.5 336.167,181.5 337.5,185.5C 331.859,176.676 323.859,171.343 313.5,169.5 Z"/></g>
<g><path style="opacity:0.776" fill="#8384aa" d="M 408.5,169.5 C 410.28,170.99 410.946,172.99 410.5,175.5C 409.262,173.786 408.595,171.786 408.5,169.5 Z"/></g>
<g><path style="opacity:1" fill="#585286" d="M 245.5,166.5 C 245.802,170.38 244.469,173.38 241.5,175.5C 242.075,172.088 243.408,169.088 245.5,166.5 Z"/></g>
<g><path style="opacity:0.945" fill="#7875a0" d="M 379.5,174.5 C 381.277,177.505 382.277,180.838 382.5,184.5C 380.723,181.495 379.723,178.162 379.5,174.5 Z"/></g>
<g><path style="opacity:0.004" fill="#d1d7e6" d="M 288.5,179.5 C 288.573,181.027 287.906,182.027 286.5,182.5C 286.427,180.973 287.094,179.973 288.5,179.5 Z"/></g>
<g><path style="opacity:0.69" fill="#8282a8" d="M 241.5,176.5 C 241.59,179.152 240.924,181.485 239.5,183.5C 239.41,180.848 240.076,178.515 241.5,176.5 Z"/></g>
<g><path style="opacity:0.976" fill="#666492" d="M 470.5,176.5 C 471.863,180.632 472.863,184.965 473.5,189.5C 472.351,189.209 471.684,188.376 471.5,187C 470.714,183.542 470.38,180.042 470.5,176.5 Z"/></g>
<g><path style="opacity:0.969" fill="#6f6a97" d="M 473.5,189.5 C 477.078,189.549 480.411,190.215 483.5,191.5C 480.482,191.665 477.482,191.498 474.5,191C 473.944,190.617 473.611,190.117 473.5,189.5 Z"/></g>
<g><path style="opacity:0.282" fill="#908eb1" d="M 489.5,192.5 C 493.876,192.909 498.21,193.575 502.5,194.5C 502.826,202.684 502.492,210.684 501.5,218.5C 501.5,210.833 501.5,203.167 501.5,195.5C 497.226,195.13 493.226,194.13 489.5,192.5 Z"/></g>
<g><path style="opacity:0.173" fill="#b9bbd4" d="M 411.5,180.5 C 413.014,186.595 413.68,192.928 413.5,199.5C 413.706,205.749 413.04,211.749 411.5,217.5C 412.743,205.172 412.743,192.839 411.5,180.5 Z"/></g>
<g><path style="opacity:0.447" fill="#9492b8" d="M 239.5,183.5 C 238.167,194.167 238.167,204.833 239.5,215.5C 237.985,210.42 237.318,205.086 237.5,199.5C 237.318,193.914 237.985,188.58 239.5,183.5 Z"/></g>
<g><path style="opacity:0.046" fill="#d7d6f1" d="M 210.5,178.5 C 209.674,189.813 209.34,201.146 209.5,212.5C 208.834,207.845 208.501,203.012 208.5,198C 208.28,191.254 208.946,184.754 210.5,178.5 Z"/></g>
<g><path style="opacity:0.29" fill="#bbbcdb" d="M 339.5,190.5 C 342.167,196.5 342.167,202.5 339.5,208.5C 340.833,202.5 340.833,196.5 339.5,190.5 Z"/></g>
<g><path style="opacity:0.145" fill="#c7c6ea" d="M 282.5,189.5 C 281.746,194.463 281.413,199.463 281.5,204.5C 280.838,202.696 280.505,200.696 280.5,198.5C 280.343,195.186 281.009,192.186 282.5,189.5 Z"/></g>
<g><path style="opacity:0.071" fill="#c2c2df" d="M 121.5,204.5 C 126.444,204.754 131.111,205.754 135.5,207.5C 130.556,207.246 125.889,206.246 121.5,204.5 Z"/></g>
<g><path style="opacity:1" fill="#656091" d="M 136.5,207.5 C 140.514,207.334 144.514,207.501 148.5,208C 149.423,210.041 149.756,212.208 149.5,214.5C 148.839,213.282 148.172,211.949 147.5,210.5C 143.683,209.611 140.016,208.611 136.5,207.5 Z"/></g>
<g><path style="opacity:0.529" fill="#9d9dbd" d="M 284.5,214.5 C 286.262,215.262 287.262,216.596 287.5,218.5C 285.738,217.738 284.738,216.404 284.5,214.5 Z"/></g>
<g><path style="opacity:0.941" fill="#807da7" d="M 382.5,184.5 C 385.578,197.349 384.911,210.016 380.5,222.5C 382.29,209.955 382.957,197.288 382.5,184.5 Z"/></g>
<g><path style="opacity:0.4" fill="#afaec8" d="M 336.5,215.5 C 336.573,217.027 335.906,218.027 334.5,218.5C 334.427,216.973 335.094,215.973 336.5,215.5 Z"/></g>
<g><path style="opacity:0.737" fill="#9594b9" d="M 287.5,218.5 C 288.833,219.167 289.833,220.167 290.5,221.5C 288.5,221.5 287.5,220.5 287.5,218.5 Z"/></g>
<g><path style="opacity:1" fill="#453f77" d="M 239.5,216.5 C 243.554,220.329 245.221,224.996 244.5,230.5C 242.065,226.201 240.398,221.534 239.5,216.5 Z"/></g>
<g><path style="opacity:0.914" fill="#61618b" d="M 334.5,218.5 C 333.833,221.167 332.167,222.833 329.5,223.5C 330.833,221.5 332.5,219.833 334.5,218.5 Z"/></g>
<g><path style="opacity:0.871" fill="#7d7ca6" d="M 210.5,220.5 C 211.768,222.905 212.435,225.572 212.5,228.5C 210.96,226.162 210.294,223.495 210.5,220.5 Z"/></g>
<g><path style="opacity:1" fill="#656290" d="M 290.5,221.5 C 293.523,223.533 296.523,225.533 299.5,227.5C 296.574,226.539 293.574,225.873 290.5,225.5C 290.5,224.167 290.5,222.833 290.5,221.5 Z"/></g>
<g><path style="opacity:0.678" fill="#8c8fb2" d="M 329.5,223.5 C 329.027,224.906 328.027,225.573 326.5,225.5C 326.973,224.094 327.973,223.427 329.5,223.5 Z"/></g>
<g><path style="opacity:0.976" fill="#79779f" d="M 149.5,217.5 C 151.105,219.48 152.272,221.813 153,224.5C 153.499,228.152 153.665,231.818 153.5,235.5C 152.315,229.588 150.982,223.588 149.5,217.5 Z"/></g>
<g><path style="opacity:0.816" fill="#7673a1" d="M 326.5,225.5 C 324.91,227.821 322.577,228.821 319.5,228.5C 321.649,227.264 323.982,226.264 326.5,225.5 Z"/></g>
<g><path style="opacity:0.612" fill="#9193b2" d="M 299.5,227.5 C 302.067,227.721 304.401,228.388 306.5,229.5C 303.772,229.829 301.438,229.163 299.5,227.5 Z"/></g>
<g><path style="opacity:0.965" fill="#575686" d="M 319.5,228.5 C 319.389,229.117 319.056,229.617 318.5,230C 314.311,230.812 310.311,230.645 306.5,229.5C 310.869,229.533 315.202,229.2 319.5,228.5 Z"/></g>
<g><path style="opacity:0.718" fill="#a5a4c6" d="M 409.5,227.5 C 409.176,232.461 407.509,236.794 404.5,240.5C 405.931,235.989 407.598,231.655 409.5,227.5 Z"/></g>
<g><path style="opacity:0.784" fill="#8e8cb5" d="M 212.5,228.5 C 214.02,230.89 215.02,233.557 215.5,236.5C 215.167,236.5 214.833,236.5 214.5,236.5C 213.226,234.007 212.56,231.341 212.5,228.5 Z"/></g>
<g><path style="opacity:1" fill="#6f6997" d="M 244.5,230.5 C 247.438,232.703 249.105,235.703 249.5,239.5C 247.076,236.992 245.41,233.992 244.5,230.5 Z"/></g>
<g><path style="opacity:0.373" fill="#acadcd" d="M 379.5,225.5 C 378.958,228.912 377.625,231.912 375.5,234.5C 376.042,231.088 377.375,228.088 379.5,225.5 Z"/></g>
<g><path style="opacity:0.031" fill="#babada" d="M 375.5,234.5 C 375.573,236.027 374.906,237.027 373.5,237.5C 373.427,235.973 374.094,234.973 375.5,234.5 Z"/></g>
<g><path style="opacity:0.239" fill="#b6b8d6" d="M 501.5,220.5 C 501.361,228.827 500.028,236.827 497.5,244.5C 497.5,243.833 497.5,243.167 497.5,242.5C 498.636,235.004 499.97,227.67 501.5,220.5 Z"/></g>
<g><path style="opacity:0.525" fill="#9f9ec0" d="M 250.5,241.5 C 252.531,242.539 253.864,244.205 254.5,246.5C 252.457,245.421 251.124,243.754 250.5,241.5 Z"/></g>
<g><path style="opacity:0.02" fill="#cfcee0" d="M 369.5,243.5 C 369.573,245.027 368.906,246.027 367.5,246.5C 367.5,246.167 367.5,245.833 367.5,245.5C 367.833,244.5 368.5,243.833 369.5,243.5 Z"/></g>
<g><path style="opacity:0.965" fill="#575283" d="M 497.5,242.5 C 497.5,243.167 497.5,243.833 497.5,244.5C 497.714,246.144 497.38,247.644 496.5,249C 486.492,249.221 476.492,249.221 466.5,249C 464.636,252.996 462.636,256.83 460.5,260.5C 461.858,256.288 462.858,251.955 463.5,247.5C 474.167,247.5 484.833,247.5 495.5,247.5C 495.12,245.302 495.787,243.635 497.5,242.5 Z"/></g>
<g><path style="opacity:0.431" fill="#8c8cb5" d="M 154.5,240.5 C 156.02,243.385 157.02,246.552 157.5,250C 157.722,252.275 156.722,253.441 154.5,253.5C 154.953,252.542 155.619,251.708 156.5,251C 155.261,247.636 154.594,244.136 154.5,240.5 Z"/></g>
<g><path style="opacity:1" fill="#49417d" d="M 367.5,245.5 C 367.5,245.833 367.5,246.167 367.5,246.5C 363.06,252.278 357.727,256.945 351.5,260.5C 351.5,258.833 351.5,257.167 351.5,255.5C 353.604,255.799 355.604,255.466 357.5,254.5C 357.167,253.833 356.833,253.167 356.5,252.5C 358.045,251.548 359.712,251.215 361.5,251.5C 361.141,249.234 361.808,247.401 363.5,246C 363.167,245.667 362.833,245.333 362.5,245C 364.197,244.616 365.863,244.782 367.5,245.5 Z"/></g>
<g><path style="opacity:0.251" fill="#bdbbd6" d="M 222.5,251.5 C 223.906,251.973 224.573,252.973 224.5,254.5C 223.094,254.027 222.427,253.027 222.5,251.5 Z"/></g>
<g><path style="opacity:0.992" fill="#7a759d" d="M 400.5,249.5 C 400.408,251.848 399.408,253.514 397.5,254.5C 397.75,252.326 398.75,250.659 400.5,249.5 Z"/></g>
<g><path style="opacity:0.871" fill="#8181a5" d="M 262.5,254.5 C 264.749,255.08 266.415,256.413 267.5,258.5C 265.251,257.92 263.585,256.587 262.5,254.5 Z"/></g>
<g><path style="opacity:1" fill="#332d6d" d="M 214.5,236.5 C 214.833,236.5 215.167,236.5 215.5,236.5C 218.07,241.311 220.403,246.311 222.5,251.5C 222.427,253.027 223.094,254.027 224.5,254.5C 225.401,255.29 226.068,256.29 226.5,257.5C 226.5,258.167 226.5,258.833 226.5,259.5C 225.472,259.926 224.139,259.926 222.5,259.5C 222.295,256.012 221.461,252.679 220,249.5C 219.667,250.167 219.333,250.833 219,251.5C 218.654,249.782 218.154,248.115 217.5,246.5C 216.167,245.167 214.833,245.167 213.5,246.5C 212.752,248.332 211.752,249.999 210.5,251.5C 210.167,250.833 209.833,250.167 209.5,249.5C 210.833,247.5 212.167,245.5 213.5,243.5C 214.474,241.257 214.808,238.924 214.5,236.5 Z"/></g>
<g><path style="opacity:0.322" fill="#b2b5cd" d="M 397.5,254.5 C 397.573,256.027 396.906,257.027 395.5,257.5C 395.427,255.973 396.094,254.973 397.5,254.5 Z"/></g>
<g><path style="opacity:1" fill="#504a7f" d="M 154.5,253.5 C 153.772,255.512 152.938,257.512 152,259.5C 151.612,258.572 150.945,257.905 150,257.5C 148.594,258.414 147.094,259.08 145.5,259.5C 147.975,256.759 150.975,254.759 154.5,253.5 Z"/></g>
<g><path style="opacity:0.376" fill="#b3b2d0" d="M 226.5,257.5 C 227.906,257.973 228.573,258.973 228.5,260.5C 227.833,260.167 227.167,259.833 226.5,259.5C 226.5,258.833 226.5,258.167 226.5,257.5 Z"/></g>
<g><path style="opacity:0.643" fill="#8689aa" d="M 267.5,258.5 C 269.404,258.738 270.738,259.738 271.5,261.5C 269.596,261.262 268.262,260.262 267.5,258.5 Z"/></g>
<g><path style="opacity:0.451" fill="#a5a5c1" d="M 395.5,257.5 C 395.573,259.027 394.906,260.027 393.5,260.5C 393.427,258.973 394.094,257.973 395.5,257.5 Z"/></g>
<g><path style="opacity:0.976" fill="#736f9d" d="M 351.5,260.5 C 350.341,262.25 348.674,263.25 346.5,263.5C 347.344,261.241 349.011,260.241 351.5,260.5 Z"/></g>
<g><path style="opacity:0.804" fill="#8486a7" d="M 393.5,260.5 C 393.262,262.404 392.262,263.738 390.5,264.5C 390.738,262.596 391.738,261.262 393.5,260.5 Z"/></g>
<g><path style="opacity:0.525" fill="#9596b7" d="M 228.5,260.5 C 229.906,260.973 230.573,261.973 230.5,263.5C 229.094,263.027 228.427,262.027 228.5,260.5 Z"/></g>
<g><path style="opacity:0.22" fill="#bebfdb" d="M 271.5,261.5 C 273.027,261.427 274.027,262.094 274.5,263.5C 272.973,263.573 271.973,262.906 271.5,261.5 Z"/></g>
<g><path style="opacity:0.718" fill="#8a8caf" d="M 139.5,263.5 C 139.027,264.906 138.027,265.573 136.5,265.5C 136.973,264.094 137.973,263.427 139.5,263.5 Z"/></g>
<g><path style="opacity:0.91" fill="#a09fc1" d="M 230.5,263.5 C 235.167,267.5 239.5,271.833 243.5,276.5C 238.167,273.167 233.833,268.833 230.5,263.5 Z"/></g>
<g><path style="opacity:1" fill="#7d7ba7" d="M 281.5,266.5 C 286.207,267.624 290.874,268.957 295.5,270.5C 295.5,270.833 295.5,271.167 295.5,271.5C 290.331,271.001 285.664,269.334 281.5,266.5 Z"/></g>
<g><path style="opacity:0.184" fill="#bcbcda" d="M 133.5,267.5 C 132.929,268.973 132.929,270.64 133.5,272.5C 131.149,270.583 131.149,268.916 133.5,267.5 Z"/></g>
<g><path style="opacity:0.055" fill="#c2c2e1" d="M 338.5,267.5 C 336.208,269.267 333.542,270.267 330.5,270.5C 331.167,269.833 331.833,269.167 332.5,268.5C 334.5,268.167 336.5,267.833 338.5,267.5 Z"/></g>
<g><path style="opacity:0.325" fill="#bdbdd7" d="M 459.5,262.5 C 458.958,265.912 457.625,268.912 455.5,271.5C 456.042,268.088 457.375,265.088 459.5,262.5 Z"/></g>
<g><path style="opacity:1" fill="#514a7f" d="M 332.5,268.5 C 331.833,269.167 331.167,269.833 330.5,270.5C 319.033,273.941 307.366,274.274 295.5,271.5C 295.5,271.167 295.5,270.833 295.5,270.5C 307.936,270.98 320.27,270.313 332.5,268.5 Z"/></g>
<g><path style="opacity:0.588" fill="#8482ab" d="M 390.5,264.5 C 386.5,270.5 381.5,275.5 375.5,279.5C 380.167,274.167 385.167,269.167 390.5,264.5 Z"/></g>
<g><path style="opacity:0.322" fill="#b0b7d0" d="M 133.5,272.5 C 134.931,273.78 135.598,275.447 135.5,277.5C 134.069,276.22 133.402,274.553 133.5,272.5 Z"/></g>
<g><path style="opacity:0.678" fill="#8687ac" d="M 375.5,279.5 C 374.738,281.262 373.404,282.262 371.5,282.5C 372.262,280.738 373.596,279.738 375.5,279.5 Z"/></g>
<g><path style="opacity:0.871" fill="#817fa8" d="M 247.5,279.5 C 249.54,281.177 251.54,282.844 253.5,284.5C 250.13,284.371 248.13,282.705 247.5,279.5 Z"/></g>
<g><path style="opacity:0.71" fill="#8585ad" d="M 371.5,282.5 C 371.027,283.906 370.027,284.573 368.5,284.5C 368.973,283.094 369.973,282.427 371.5,282.5 Z"/></g>
<g><path style="opacity:0.353" fill="#b9b8d5" d="M 452.5,278.5 C 451.213,281.406 450.213,284.406 449.5,287.5C 448.402,283.982 449.402,280.982 452.5,278.5 Z"/></g>
<g><path style="opacity:0.192" fill="#bebfda" d="M 138.5,283.5 C 139.674,284.514 140.34,285.847 140.5,287.5C 138.896,286.713 138.229,285.38 138.5,283.5 Z"/></g>
<g><path style="opacity:1" fill="#726f9a" d="M 140.5,287.5 C 142.913,288.68 143.913,290.68 143.5,293.5C 141.992,291.819 140.992,289.819 140.5,287.5 Z"/></g>
<g><path style="opacity:1" fill="#514c7e" d="M 368.5,284.5 C 367.391,288.602 364.725,290.269 360.5,289.5C 362.822,287.336 365.489,285.669 368.5,284.5 Z"/></g>
<g><path style="opacity:0.427" fill="#c0c0da" d="M 449.5,287.5 C 450.906,287.973 451.573,288.973 451.5,290.5C 450.094,290.027 449.427,289.027 449.5,287.5 Z"/></g>
<g><path style="opacity:1" fill="#6f6a98" d="M 255.5,285.5 C 258.203,287.181 260.869,288.847 263.5,290.5C 259.512,290.774 256.845,289.107 255.5,285.5 Z"/></g>
<g><path style="opacity:0.816" fill="#9a9cbc" d="M 453.5,292.5 C 456.573,294.569 458.906,297.236 460.5,300.5C 457.427,298.431 455.094,295.764 453.5,292.5 Z"/></g>
<g><path style="opacity:0.451" fill="#a09fc3" d="M 277.5,296.5 C 282.728,297.389 287.728,298.722 292.5,300.5C 287.023,300.549 282.023,299.216 277.5,296.5 Z"/></g>
<g><path style="opacity:0.588" fill="#9fa0c1" d="M 341.5,297.5 C 339.485,298.924 337.152,299.59 334.5,299.5C 336.515,298.076 338.848,297.41 341.5,297.5 Z"/></g>
<g><path style="opacity:0.173" fill="#b8b7dc" d="M 295.5,300.5 C 303.458,301.403 311.458,301.736 319.5,301.5C 319.5,301.833 319.5,302.167 319.5,302.5C 312.159,302.666 304.826,302.5 297.5,302C 296.584,301.722 295.918,301.222 295.5,300.5 Z"/></g>
<g><path style="opacity:0.98" fill="#515182" d="M 334.5,299.5 C 329.927,302.018 324.927,303.018 319.5,302.5C 319.5,302.167 319.5,301.833 319.5,301.5C 324.5,300.833 329.5,300.167 334.5,299.5 Z"/></g>
<g><path style="opacity:0.094" fill="#d0d6ea" d="M 147.5,300.5 C 148.906,300.973 149.573,301.973 149.5,303.5C 148.094,303.027 147.427,302.027 147.5,300.5 Z"/></g>
<g><path style="opacity:0.859" fill="#8b8baf" d="M 462.5,302.5 C 464.463,303.96 466.296,305.627 468,307.5C 468.74,308.749 468.573,309.749 467.5,310.5C 465.833,307.833 464.167,305.167 462.5,302.5 Z"/></g>
<g><path style="opacity:0.69" fill="#abaccb" d="M 186.5,304.5 C 189.427,305.757 191.761,307.757 193.5,310.5C 190.573,309.243 188.239,307.243 186.5,304.5 Z"/></g>
<g><path style="opacity:0.306" fill="#c5c5dc" d="M 177.5,307.5 C 174.912,309.625 171.912,310.958 168.5,311.5C 168.5,311.167 168.5,310.833 168.5,310.5C 171.406,309.213 174.406,308.213 177.5,307.5 Z"/></g>
<g><path style="opacity:1" fill="#4a4579" d="M 149.5,303.5 C 153.303,304.743 155.47,307.41 156,311.5C 157,312.167 158,312.833 159,313.5C 161.946,311.788 165.113,310.788 168.5,310.5C 168.5,310.833 168.5,311.167 168.5,311.5C 166.491,313.065 164.157,314.065 161.5,314.5C 159.708,314.634 158.042,314.301 156.5,313.5C 153.687,310.554 151.354,307.221 149.5,303.5 Z"/></g>
<g><path style="opacity:0.141" fill="#bdc4e2" d="M 467.5,310.5 C 467.573,312.027 466.906,313.027 465.5,313.5C 465.427,311.973 466.094,310.973 467.5,310.5 Z"/></g>
<g><path style="opacity:0.784" fill="#a2a1be" d="M 156.5,313.5 C 158.042,314.301 159.708,314.634 161.5,314.5C 159.128,317.476 157.461,317.143 156.5,313.5 Z"/></g>
<g><path style="opacity:0.043" fill="#c2c4df" d="M 465.5,313.5 C 465.262,315.404 464.262,316.738 462.5,317.5C 462.5,316.833 462.5,316.167 462.5,315.5C 463.5,314.833 464.5,314.167 465.5,313.5 Z"/></g>
<g><path style="opacity:0.678" fill="#b3b2d0" d="M 201.5,318.5 C 204.427,319.757 206.761,321.757 208.5,324.5C 205.573,323.243 203.239,321.243 201.5,318.5 Z"/></g>
<g><path style="opacity:1" fill="#443d7a" d="M 462.5,315.5 C 462.5,316.167 462.5,316.833 462.5,317.5C 461.219,320.447 459.219,322.781 456.5,324.5C 455.094,324.973 454.427,325.973 454.5,327.5C 453.833,328.833 452.833,329.833 451.5,330.5C 451.337,328.143 451.503,325.81 452,323.5C 452.333,323.833 452.667,324.167 453,324.5C 454.161,322.084 455.828,320.084 458,318.5C 458.333,319.167 458.667,319.833 459,320.5C 459.494,318.866 459.66,317.199 459.5,315.5C 460.5,315.5 461.5,315.5 462.5,315.5 Z"/></g>
<g><path style="opacity:0.012" fill="#d3d3e4" d="M 456.5,324.5 C 456.573,326.027 455.906,327.027 454.5,327.5C 454.427,325.973 455.094,324.973 456.5,324.5 Z"/></g>
<g><path style="opacity:0.812" fill="#8284ad" d="M 212.5,328.5 C 214.371,328.859 215.871,329.859 217,331.5C 217.773,333.352 217.273,334.686 215.5,335.5C 215.414,334.504 215.748,333.671 216.5,333C 214.959,331.629 213.625,330.129 212.5,328.5 Z"/></g>
<g><path style="opacity:1" fill="#5a5689" d="M 413.5,334.5 C 411.284,333.797 409.451,332.464 408,330.5C 407.329,331.252 406.496,331.586 405.5,331.5C 403.973,331.427 402.973,332.094 402.5,333.5C 402.158,334.338 401.492,334.672 400.5,334.5C 401.684,333.312 401.684,332.145 400.5,331C 406.117,328.045 410.451,329.212 413.5,334.5 Z"/></g>
<g><path style="opacity:0.02" fill="#d4d5e7" d="M 405.5,331.5 C 405.027,332.906 404.027,333.573 402.5,333.5C 402.973,332.094 403.973,331.427 405.5,331.5 Z"/></g>
<g><path style="opacity:1" fill="#6d6799" d="M 400.5,334.5 C 399.035,335.737 397.368,336.737 395.5,337.5C 395.5,336.5 395.5,335.5 395.5,334.5C 397.167,334.5 398.833,334.5 400.5,334.5 Z"/></g>
<g><path style="opacity:0.839" fill="#8886ae" d="M 413.5,334.5 C 415.404,334.738 416.738,335.738 417.5,337.5C 415.596,337.262 414.262,336.262 413.5,334.5 Z"/></g>
<g><path style="opacity:1" fill="#4f4682" d="M 450.5,331.5 C 445.463,337.538 439.797,342.871 433.5,347.5C 433.167,347.5 432.833,347.5 432.5,347.5C 432.36,345.876 433.027,344.71 434.5,344C 434.167,343.667 433.833,343.333 433.5,343C 434.793,342.51 436.127,342.343 437.5,342.5C 437.5,341.167 437.5,339.833 437.5,338.5C 438.552,338.649 439.552,338.483 440.5,338C 440.167,337.667 439.833,337.333 439.5,337C 440.966,336.365 442.3,335.531 443.5,334.5C 444.086,334.709 444.586,335.043 445,335.5C 445.318,333.939 446.151,332.772 447.5,332C 447.167,331.667 446.833,331.333 446.5,331C 447.928,330.421 449.262,330.588 450.5,331.5 Z"/></g>
<g><path style="opacity:0.906" fill="#7e7da4" d="M 215.5,336.5 C 214.65,340.553 213.484,344.553 212,348.5C 211.617,349.056 211.117,349.389 210.5,349.5C 211.37,344.777 213.036,340.444 215.5,336.5 Z"/></g>
<g><path style="opacity:0.624" fill="#9494b8" d="M 417.5,337.5 C 420.089,338.419 422.089,340.086 423.5,342.5C 420.911,341.581 418.911,339.914 417.5,337.5 Z"/></g>
<g><path style="opacity:0.027" fill="#d9d9ec" d="M 389.5,340.5 C 389.027,341.906 388.027,342.573 386.5,342.5C 386.973,341.094 387.973,340.427 389.5,340.5 Z"/></g>
<g><path style="opacity:0.769" fill="#969ab4" d="M 423.5,342.5 C 425.404,342.738 426.738,343.738 427.5,345.5C 425.596,345.262 424.262,344.262 423.5,342.5 Z"/></g>
<g><path style="opacity:0.055" fill="#bdc4d7" d="M 378.5,346.5 C 378.027,347.906 377.027,348.573 375.5,348.5C 375.973,347.094 376.973,346.427 378.5,346.5 Z"/></g>
<g><path style="opacity:0.545" fill="#a2a0c0" d="M 427.5,345.5 C 429.167,346.167 430.833,346.833 432.5,347.5C 432.833,347.5 433.167,347.5 433.5,347.5C 433.189,348.478 432.522,349.145 431.5,349.5C 429.812,348.479 428.479,347.145 427.5,345.5 Z"/></g>
<g><path style="opacity:0.867" fill="#9090ae" d="M 210.5,349.5 C 210.88,351.698 210.213,353.365 208.5,354.5C 208.796,352.597 209.463,350.93 210.5,349.5 Z"/></g>
<g><path style="opacity:0.824" fill="#8a88b1" d="M 373.5,349.5 C 372.185,350.667 371.519,352.167 371.5,354C 372.31,357.792 372.644,361.625 372.5,365.5C 371.558,361.855 370.892,358.022 370.5,354C 370.05,351.374 371.05,349.874 373.5,349.5 Z"/></g>
<g><path style="opacity:0.149" fill="#c5c7e0" d="M 285.5,359.5 C 280.094,358.649 274.761,358.649 269.5,359.5C 271.048,358.206 273.048,357.539 275.5,357.5C 279.117,357.398 282.45,358.065 285.5,359.5 Z"/></g>
<g><path style="opacity:0.843" fill="#7b7aa6" d="M 298.5,360.5 C 303.434,360.229 308.1,360.896 312.5,362.5C 307.63,362.31 302.964,361.644 298.5,360.5 Z"/></g>
<g><path style="opacity:0.388" fill="#a6a5ce" d="M 209.5,362.5 C 211.027,362.427 212.027,363.094 212.5,364.5C 210.973,364.573 209.973,363.906 209.5,362.5 Z"/></g>
<g><path style="opacity:0.914" fill="#7975a1" d="M 312.5,362.5 C 314.308,363.918 314.975,365.918 314.5,368.5C 313.262,366.786 312.595,364.786 312.5,362.5 Z"/></g>
<g><path style="opacity:0.184" fill="#cacde3" d="M 212.5,364.5 C 214.027,364.427 215.027,365.094 215.5,366.5C 213.973,366.573 212.973,365.906 212.5,364.5 Z"/></g>
<g><path style="opacity:0.2" fill="#c0c0d8" d="M 265.5,366.5 C 264.921,369.331 263.588,371.664 261.5,373.5C 261.557,372.391 261.89,371.391 262.5,370.5C 263.026,368.77 264.026,367.436 265.5,366.5 Z"/></g>
<g><path style="opacity:1" fill="#383270" d="M 262.5,370.5 C 261.89,371.391 261.557,372.391 261.5,373.5C 260.89,375.434 259.89,377.101 258.5,378.5C 256.468,379.048 255.468,380.381 255.5,382.5C 254.5,382.5 253.5,382.5 252.5,382.5C 244.375,380.462 236.708,377.462 229.5,373.5C 235.294,374.449 240.961,375.949 246.5,378C 248.669,380.203 251.335,381.036 254.5,380.5C 254.52,378.857 253.853,377.524 252.5,376.5C 253.325,375.614 254.325,375.281 255.5,375.5C 255.351,376.552 255.517,377.552 256,378.5C 258.203,376.331 259.036,373.665 258.5,370.5C 259.833,370.5 261.167,370.5 262.5,370.5 Z"/></g>
<g><path style="opacity:1" fill="#7d78a1" d="M 258.5,378.5 C 258.166,382.88 256.166,384.214 252.5,382.5C 253.5,382.5 254.5,382.5 255.5,382.5C 255.468,380.381 256.468,379.048 258.5,378.5 Z"/></g>
<g><path style="opacity:0.133" fill="#b8b8d6" d="M 315.5,372.5 C 317.816,376.794 319.15,381.46 319.5,386.5C 317.592,382.097 316.259,377.43 315.5,372.5 Z"/></g>
<g><path style="opacity:0.027" fill="#d4d3e7" d="M 373.5,375.5 C 375.746,381.61 373.413,384.277 366.5,383.5C 368.539,382.422 370.706,381.422 373,380.5C 373.494,378.866 373.66,377.199 373.5,375.5 Z"/></g>
<g><path style="opacity:0.314" fill="#afafcd" d="M 355.5,386.5 C 351.143,388.419 346.477,389.419 341.5,389.5C 345.857,387.581 350.523,386.581 355.5,386.5 Z"/></g>
<g><path style="opacity:0.153" fill="#c1c2df" d="M 320.5,389.5 C 327.429,390.361 334.429,390.361 341.5,389.5C 337.063,390.801 332.397,391.467 327.5,391.5C 324.731,391.471 322.397,390.805 320.5,389.5 Z"/></g>
</svg>
