<?xml version="1.0" encoding="UTF-8"?>
<!DOCTYPE svg PUBLIC "-//W3C//DTD SVG 1.1//EN" "http://www.w3.org/Graphics/SVG/1.1/DTD/svg11.dtd">
<svg xmlns="http://www.w3.org/2000/svg" version="1.1" width="623px" height="400px" style="shape-rendering:geometricPrecision; text-rendering:geometricPrecision; image-rendering:optimizeQuality; fill-rule:evenodd; clip-rule:evenodd" xmlns:xlink="http://www.w3.org/1999/xlink">
<g><path style="opacity:1" fill="#44c4d9" d="M 339.5,21.5 C 339.5,23.5 339.5,25.5 339.5,27.5C 338.609,26.7387 337.942,25.7387 337.5,24.5C 334.411,23.7011 331.744,22.2011 329.5,20C 333.637,17.1307 332.971,15.7974 327.5,16C 314.833,15.3333 302.167,15.3333 289.5,16C 288.663,17.0113 288.33,18.1779 288.5,19.5C 284.65,19.7007 283.65,21.5341 285.5,25C 284.953,25.9246 284.287,26.7579 283.5,27.5C 282.928,35.6228 281.761,43.6228 280,51.5C 274.643,57.6655 267.809,60.9988 259.5,61.5C 263.956,59.1085 268.623,56.9418 273.5,55C 277.45,51.2643 279.95,46.7643 281,41.5C 281.333,35.1667 281.667,28.8333 282,22.5C 283.031,19.4605 284.865,16.9605 287.5,15C 302.098,13.3838 316.765,13.0505 331.5,14C 335.319,15.3202 337.985,17.8202 339.5,21.5 Z"/></g>
<g><path style="opacity:1" fill="#10c0df" d="M 339.5,27.5 C 339.253,34.8876 339.753,42.221 341,49.5C 342.113,50.305 343.279,50.9717 344.5,51.5C 344.5,52.8333 344.5,54.1667 344.5,55.5C 348.332,56.1596 351.166,58.1596 353,61.5C 354.11,59.9632 355.61,59.2965 357.5,59.5C 357.944,61.1132 358.944,62.2798 360.5,63C 365.162,63.9111 369.495,65.5777 373.5,68C 375.473,68.4955 377.473,68.6621 379.5,68.5C 381.5,69.1667 383.5,69.8333 385.5,70.5C 391.39,71.824 397.39,71.6574 403.5,70C 406.564,64.5974 410.397,59.7641 415,55.5C 416.871,56.6678 418.371,56.1678 419.5,54C 421.473,53.5045 423.473,53.3379 425.5,53.5C 427.593,54.0447 429.593,54.878 431.5,56C 439.369,63.7017 447.036,71.5351 454.5,79.5C 454.427,81.0269 455.094,82.0269 456.5,82.5C 457.051,85.8067 457.384,89.1401 457.5,92.5C 454.954,97.7186 451.287,102.052 446.5,105.5C 445.791,104.596 444.791,104.263 443.5,104.5C 443.5,105.833 443.5,107.167 443.5,108.5C 442.325,108.281 441.325,108.614 440.5,109.5C 438.021,115.66 438.021,121.66 440.5,127.5C 443.065,131.844 445.065,136.51 446.5,141.5C 447.315,145.144 448.148,148.811 449,152.5C 449.792,155.106 451.292,157.106 453.5,158.5C 455.861,162.861 459.194,166.194 463.5,168.5C 463.918,169.222 464.584,169.722 465.5,170C 472.826,170.5 480.159,170.666 487.5,170.5C 491.02,171.353 493.687,173.353 495.5,176.5C 496.431,190.804 496.764,205.137 496.5,219.5C 495.491,220.935 494.157,221.769 492.5,222C 492.833,222.333 493.167,222.667 493.5,223C 491.356,223.792 490.023,225.292 489.5,227.5C 481.525,228.199 473.525,228.699 465.5,229C 464.584,229.278 463.918,229.778 463.5,230.5C 462.417,230.461 461.417,230.127 460.5,229.5C 459.024,231.571 457.024,232.571 454.5,232.5C 451.89,238.931 449.89,245.598 448.5,252.5C 446.166,254.176 445.166,256.509 445.5,259.5C 444.352,263.787 442.685,267.787 440.5,271.5C 439.003,273.29 438.336,275.456 438.5,278C 438.336,280.544 439.003,282.71 440.5,284.5C 442.451,287.786 444.785,290.786 447.5,293.5C 447.833,295.833 449.167,297.167 451.5,297.5C 451.525,300.179 452.858,301.512 455.5,301.5C 455.5,301.833 455.5,302.167 455.5,302.5C 456.919,306.015 457.586,309.681 457.5,313.5C 456.657,317.844 454.324,321.177 450.5,323.5C 448.402,322.086 447.402,322.752 447.5,325.5C 446.178,325.67 445.011,325.337 444,324.5C 442.666,327.841 440.832,330.841 438.5,333.5C 436.802,332.319 435.135,332.319 433.5,333.5C 434.397,333.669 435.397,334.002 436.5,334.5C 435.272,336.321 433.606,337.321 431.5,337.5C 431.5,338.833 431.5,340.167 431.5,341.5C 427.757,341.529 424.423,342.529 421.5,344.5C 418.448,343.986 415.448,343.32 412.5,342.5C 409.036,339.538 405.703,336.371 402.5,333C 396.878,328.77 390.544,327.437 383.5,329C 381.35,330.411 379.016,331.245 376.5,331.5C 373.759,331.707 371.426,332.707 369.5,334.5C 365.797,336.679 361.797,338.345 357.5,339.5C 353.591,339.124 350.591,340.457 348.5,343.5C 345.674,346.484 343.341,349.817 341.5,353.5C 340.883,353.611 340.383,353.944 340,354.5C 339.925,362.36 339.092,370.026 337.5,377.5C 335.712,377.215 334.045,377.548 332.5,378.5C 333.758,377.984 334.758,378.65 335.5,380.5C 334.624,381.251 333.624,381.751 332.5,382C 333.056,382.383 333.389,382.883 333.5,383.5C 318.486,384.779 303.486,384.779 288.5,383.5C 285.706,380.477 283.873,376.81 283,372.5C 282.617,373.056 282.117,373.389 281.5,373.5C 281.5,368.5 281.5,363.5 281.5,358.5C 282.457,353.132 280.79,349.132 276.5,346.5C 275.5,346.167 274.833,345.5 274.5,344.5C 274.027,343.094 273.027,342.427 271.5,342.5C 269.824,340.166 267.491,339.166 264.5,339.5C 263.434,337.394 261.767,335.894 259.5,335C 258.207,334.51 256.873,334.343 255.5,334.5C 255.719,333.325 255.386,332.325 254.5,331.5C 253.158,333.005 251.492,333.672 249.5,333.5C 246.088,332.925 243.088,331.592 240.5,329.5C 239.766,328.292 239.433,326.959 239.5,325.5C 231.199,325.051 223.699,327.051 217,331.5C 215.213,330.238 213.379,329.405 211.5,329C 210.549,329.718 210.383,330.551 211,331.5C 212.609,332.147 214.109,332.98 215.5,334C 213.976,336.358 211.976,338.191 209.5,339.5C 208.571,340.689 208.238,342.022 208.5,343.5C 207.486,344.674 206.153,345.34 204.5,345.5C 202.167,345.5 199.833,345.5 197.5,345.5C 197.36,343.876 198.027,342.71 199.5,342C 196.888,341.361 194.554,340.194 192.5,338.5C 191.833,338.833 191.167,339.167 190.5,339.5C 189.272,336.929 187.272,335.595 184.5,335.5C 184.733,332.046 183.4,331.046 180.5,332.5C 174.773,327.776 169.773,322.442 165.5,316.5C 163.839,311.149 164.506,306.149 167.5,301.5C 172.23,297.773 176.23,293.44 179.5,288.5C 181.104,287.713 181.771,286.38 181.5,284.5C 182.222,284.082 182.722,283.416 183,282.5C 183.844,276.426 183.01,270.593 180.5,265C 179.87,263.69 178.87,262.856 177.5,262.5C 176.596,261.791 176.263,260.791 176.5,259.5C 176.33,258.178 176.663,257.011 177.5,256C 174.671,249.517 171.837,243.017 169,236.5C 167.989,235.663 166.822,235.33 165.5,235.5C 165.721,234.265 166.388,233.265 167.5,232.5C 166.675,231.614 165.675,231.281 164.5,231.5C 164.671,228.203 164.005,227.869 162.5,230.5C 160.615,229.391 158.615,228.557 156.5,228C 148.82,227.597 141.153,227.097 133.5,226.5C 134.32,222.855 132.987,220.522 129.5,219.5C 128.614,218.675 128.281,217.675 128.5,216.5C 127.5,216.5 126.5,216.5 125.5,216.5C 125.5,203.833 125.5,191.167 125.5,178.5C 127.233,174.435 130.233,171.768 134.5,170.5C 141.508,170.666 148.508,170.5 155.5,170C 156.737,169.768 157.737,169.268 158.5,168.5C 162.105,166.528 165.105,163.861 167.5,160.5C 172.562,155.397 175.229,149.064 175.5,141.5C 176.761,139.71 178.261,138.043 180,136.5C 181.066,131.138 182.233,125.804 183.5,120.5C 183.531,115.874 181.864,112.207 178.5,109.5C 176.5,105.5 173.5,102.5 169.5,100.5C 168.829,99.1529 168.829,97.9862 169.5,97C 168.033,95.9025 167.199,94.4025 167,92.5C 166.23,93.5981 165.397,93.5981 164.5,92.5C 164.65,87.9015 165.65,83.5681 167.5,79.5C 170.839,77.0071 174.339,74.6738 178,72.5C 179.093,74.2982 180.593,75.1315 182.5,75C 179.414,71.4895 180.081,69.3229 184.5,68.5C 184.366,66.7085 184.699,65.0418 185.5,63.5C 187.833,60.8333 190.167,58.1667 192.5,55.5C 197.562,51.7121 202.895,51.5454 208.5,55C 213.647,61.1576 219.647,66.1576 226.5,70C 230.5,70.6667 234.5,70.6667 238.5,70C 245.295,66.6007 252.295,63.7673 259.5,61.5C 267.809,60.9988 274.643,57.6655 280,51.5C 281.761,43.6228 282.928,35.6228 283.5,27.5C 284.287,26.7579 284.953,25.9246 285.5,25C 283.65,21.5341 284.65,19.7007 288.5,19.5C 288.33,18.1779 288.663,17.0113 289.5,16C 302.167,15.3333 314.833,15.3333 327.5,16C 332.971,15.7974 333.637,17.1307 329.5,20C 331.744,22.2011 334.411,23.7011 337.5,24.5C 337.942,25.7387 338.609,26.7387 339.5,27.5 Z M 322.5,124.5 C 324.379,125.341 326.379,125.675 328.5,125.5C 330.599,126.612 332.933,127.279 335.5,127.5C 342.407,130.287 349.073,133.62 355.5,137.5C 359.807,141.472 364.141,145.472 368.5,149.5C 374.193,156.884 378.86,164.884 382.5,173.5C 382.899,177.116 383.899,180.45 385.5,183.5C 386.308,192.476 386.642,201.476 386.5,210.5C 383.484,224.867 377.484,237.867 368.5,249.5C 365.5,251.833 362.833,254.5 360.5,257.5C 358.251,258.08 356.585,259.413 355.5,261.5C 352.996,262.584 350.663,263.917 348.5,265.5C 346.326,265.75 344.659,266.75 343.5,268.5C 340.603,269.129 337.936,270.129 335.5,271.5C 332.933,271.721 330.599,272.388 328.5,273.5C 321.833,274.167 315.167,274.833 308.5,275.5C 301.182,274.823 293.848,273.49 286.5,271.5C 281.911,269.545 277.245,267.545 272.5,265.5C 268.524,262.531 264.524,259.531 260.5,256.5C 257.5,252.833 254.167,249.5 250.5,246.5C 247.482,241.127 244.482,235.794 241.5,230.5C 240.538,226.605 239.204,222.939 237.5,219.5C 235.408,208.458 234.741,197.458 235.5,186.5C 237.123,182.022 238.456,177.355 239.5,172.5C 240.931,171.22 241.598,169.553 241.5,167.5C 242.674,166.486 243.34,165.153 243.5,163.5C 247.861,156.143 253.194,149.476 259.5,143.5C 264.678,138.75 270.345,134.75 276.5,131.5C 279.838,130.164 283.171,128.831 286.5,127.5C 289.067,127.279 291.401,126.612 293.5,125.5C 293.833,125.5 294.167,125.5 294.5,125.5C 303.78,123.474 313.113,123.141 322.5,124.5 Z"/></g>
<g><path style="opacity:1" fill="#6bcddb" d="M 339.5,21.5 C 340.328,27.9874 340.828,34.654 341,41.5C 341.348,45.1803 342.515,48.5136 344.5,51.5C 343.279,50.9717 342.113,50.305 341,49.5C 339.753,42.221 339.253,34.8876 339.5,27.5C 339.5,25.5 339.5,23.5 339.5,21.5 Z"/></g>
<g><path style="opacity:1" fill="#68d0e1" d="M 344.5,51.5 C 348.401,54.9464 352.734,57.6131 357.5,59.5C 355.61,59.2965 354.11,59.9632 353,61.5C 351.166,58.1596 348.332,56.1596 344.5,55.5C 344.5,54.1667 344.5,52.8333 344.5,51.5 Z"/></g>
<g><path style="opacity:0.773" fill="#8cdde6" d="M 192.5,55.5 C 190.167,58.1667 187.833,60.8333 185.5,63.5C 184.833,63.5 184.167,63.5 183.5,63.5C 185.9,60.0969 188.9,57.4302 192.5,55.5 Z"/></g>
<g><path style="opacity:1" fill="#60cbdd" d="M 357.5,59.5 C 365.07,62.129 372.404,65.129 379.5,68.5C 377.473,68.6621 375.473,68.4955 373.5,68C 369.495,65.5777 365.162,63.9111 360.5,63C 358.944,62.2798 357.944,61.1132 357.5,59.5 Z"/></g>
<g><path style="opacity:1" fill="#5ccadd" d="M 425.5,53.5 C 423.473,53.3379 421.473,53.5045 419.5,54C 418.371,56.1678 416.871,56.6678 415,55.5C 410.397,59.7641 406.564,64.5974 403.5,70C 397.39,71.6574 391.39,71.824 385.5,70.5C 389.936,70.7899 394.27,70.2899 398.5,69C 403.801,64.7002 408.801,60.0336 413.5,55C 417.405,52.5114 421.405,52.0114 425.5,53.5 Z"/></g>
<g><path style="opacity:1" fill="#50c9db" d="M 183.5,63.5 C 184.167,63.5 184.833,63.5 185.5,63.5C 184.699,65.0418 184.366,66.7085 184.5,68.5C 180.081,69.3229 179.414,71.4895 182.5,75C 180.593,75.1315 179.093,74.2982 178,72.5C 174.339,74.6738 170.839,77.0071 167.5,79.5C 172.5,73.8333 177.833,68.5 183.5,63.5 Z"/></g>
<g><path style="opacity:0.345" fill="#adeef7" d="M 454.5,79.5 C 455.906,79.9731 456.573,80.9731 456.5,82.5C 455.094,82.0269 454.427,81.0269 454.5,79.5 Z"/></g>
<g><path style="opacity:1" fill="#81dbe7" d="M 167.5,79.5 C 165.65,83.5681 164.65,87.9015 164.5,92.5C 162.821,87.6164 163.821,83.2831 167.5,79.5 Z"/></g>
<g><path style="opacity:0.22" fill="#b7f4fa" d="M 456.5,82.5 C 458.531,85.7076 458.865,89.041 457.5,92.5C 457.384,89.1401 457.051,85.8067 456.5,82.5 Z"/></g>
<g><path style="opacity:1" fill="#70cfdf" d="M 164.5,92.5 C 165.397,93.5981 166.23,93.5981 167,92.5C 167.199,94.4025 168.033,95.9025 169.5,97C 168.829,97.9862 168.829,99.1529 169.5,100.5C 167.007,98.3424 165.34,95.6757 164.5,92.5 Z"/></g>
<g><path style="opacity:0.529" fill="#b0eef7" d="M 169.5,100.5 C 173.5,102.5 176.5,105.5 178.5,109.5C 175.167,106.833 172.167,103.833 169.5,100.5 Z"/></g>
<g><path style="opacity:1" fill="#6fd2e0" d="M 446.5,105.5 C 440.756,111.811 438.756,119.144 440.5,127.5C 438.021,121.66 438.021,115.66 440.5,109.5C 441.325,108.614 442.325,108.281 443.5,108.5C 443.5,107.167 443.5,105.833 443.5,104.5C 444.791,104.263 445.791,104.596 446.5,105.5 Z"/></g>
<g><path style="opacity:0.741" fill="#7ad5e4" d="M 178.5,109.5 C 181.864,112.207 183.531,115.874 183.5,120.5C 182.233,125.804 181.066,131.138 180,136.5C 178.261,138.043 176.761,139.71 175.5,141.5C 177.965,134.73 180.299,127.897 182.5,121C 181.975,116.851 180.641,113.018 178.5,109.5 Z"/></g>
<g><path style="opacity:0.607" fill="#8ce2f1" d="M 322.5,124.5 C 313.113,123.141 303.78,123.474 294.5,125.5C 299.825,123.333 305.492,122.333 311.5,122.5C 315.469,122.294 319.135,122.961 322.5,124.5 Z"/></g>
<g><path style="opacity:0.11" fill="#bdf6fa" d="M 293.5,125.5 C 291.401,126.612 289.067,127.279 286.5,127.5C 288.438,125.837 290.772,125.171 293.5,125.5 Z"/></g>
<g><path style="opacity:0.718" fill="#a2edf6" d="M 328.5,125.5 C 331.228,125.171 333.562,125.837 335.5,127.5C 332.933,127.279 330.599,126.612 328.5,125.5 Z"/></g>
<g><path style="opacity:1" fill="#48c5dc" d="M 335.5,127.5 C 341.554,127.53 347.054,129.196 352,132.5C 353.882,131.394 355.716,131.394 357.5,132.5C 355.995,133.842 355.328,135.508 355.5,137.5C 349.073,133.62 342.407,130.287 335.5,127.5 Z"/></g>
<g><path style="opacity:1" fill="#5dccdb" d="M 276.5,131.5 C 270.345,134.75 264.678,138.75 259.5,143.5C 261.05,139.617 263.384,136.283 266.5,133.5C 269.753,132.402 273.086,131.736 276.5,131.5 Z"/></g>
<g><path style="opacity:1" fill="#60cdde" d="M 259.5,143.5 C 253.194,149.476 247.861,156.143 243.5,163.5C 243.556,160.606 244.39,157.939 246,155.5C 246.333,155.833 246.667,156.167 247,156.5C 247.202,154.744 247.702,153.078 248.5,151.5C 251.313,150.383 251.98,148.55 250.5,146C 253.513,145.091 256.513,144.258 259.5,143.5 Z"/></g>
<g><path style="opacity:1" fill="#65cddd" d="M 175.5,141.5 C 175.229,149.064 172.562,155.397 167.5,160.5C 169.796,153.927 172.462,147.594 175.5,141.5 Z"/></g>
<g><path style="opacity:1" fill="#71d1e4" d="M 446.5,141.5 C 449.4,146.848 451.733,152.515 453.5,158.5C 451.292,157.106 449.792,155.106 449,152.5C 448.148,148.811 447.315,145.144 446.5,141.5 Z"/></g>
<g><path style="opacity:1" fill="#69d0df" d="M 368.5,149.5 C 369.822,149.33 370.989,149.663 372,150.5C 373.765,153.709 375.765,156.709 378,159.5C 380.605,163.815 382.105,168.482 382.5,173.5C 378.86,164.884 374.193,156.884 368.5,149.5 Z"/></g>
<g><path style="opacity:0.278" fill="#a1f4fd" d="M 158.5,168.5 C 157.737,169.268 156.737,169.768 155.5,170C 148.508,170.5 141.508,170.666 134.5,170.5C 142.346,169.703 150.346,169.036 158.5,168.5 Z"/></g>
<g><path style="opacity:0.285" fill="#9bf4fc" d="M 463.5,168.5 C 471.645,169.073 479.645,169.74 487.5,170.5C 480.159,170.666 472.826,170.5 465.5,170C 464.584,169.722 463.918,169.222 463.5,168.5 Z"/></g>
<g><path style="opacity:0.294" fill="#b3eef9" d="M 241.5,167.5 C 241.598,169.553 240.931,171.22 239.5,172.5C 239.402,170.447 240.069,168.78 241.5,167.5 Z"/></g>
<g><path style="opacity:1" fill="#80d8ea" d="M 239.5,172.5 C 238.456,177.355 237.123,182.022 235.5,186.5C 235.757,182.108 236.424,177.775 237.5,173.5C 238.183,173.137 238.85,172.804 239.5,172.5 Z"/></g>
<g><path style="opacity:0.6" fill="#98e6f4" d="M 382.5,173.5 C 384.41,176.452 385.41,179.786 385.5,183.5C 383.899,180.45 382.899,177.116 382.5,173.5 Z"/></g>
<g><path style="opacity:0.501" fill="#86e8f6" d="M 495.5,176.5 C 496.268,177.263 496.768,178.263 497,179.5C 497.827,193.006 497.66,206.34 496.5,219.5C 496.764,205.137 496.431,190.804 495.5,176.5 Z"/></g>
<g><path style="opacity:1" fill="#54c8dd" d="M 125.5,178.5 C 125.5,191.167 125.5,203.833 125.5,216.5C 126.5,216.5 127.5,216.5 128.5,216.5C 128.281,217.675 128.614,218.675 129.5,219.5C 132.987,220.522 134.32,222.855 133.5,226.5C 141.153,227.097 148.82,227.597 156.5,228C 158.615,228.557 160.615,229.391 162.5,230.5C 164.005,227.869 164.671,228.203 164.5,231.5C 165.675,231.281 166.675,231.614 167.5,232.5C 166.388,233.265 165.721,234.265 165.5,235.5C 162.833,233.833 160.167,232.167 157.5,230.5C 157.082,229.778 156.416,229.278 155.5,229C 148.508,228.5 141.508,228.334 134.5,228.5C 129.885,227.052 126.718,224.052 125,219.5C 124.173,205.66 124.339,191.994 125.5,178.5 Z"/></g>
<g><path style="opacity:0.635" fill="#a5e9f3" d="M 237.5,219.5 C 239.204,222.939 240.538,226.605 241.5,230.5C 239.01,227.374 237.677,223.708 237.5,219.5 Z"/></g>
<g><path style="opacity:0.941" fill="#73d0e2" d="M 496.5,219.5 C 495.607,223.395 493.274,226.062 489.5,227.5C 490.023,225.292 491.356,223.792 493.5,223C 493.167,222.667 492.833,222.333 492.5,222C 494.157,221.769 495.491,220.935 496.5,219.5 Z"/></g>
<g><path style="opacity:1" fill="#57c7dc" d="M 386.5,210.5 C 386.53,219.713 384.364,228.379 380,236.5C 377.667,240.167 375.333,243.833 373,247.5C 371.53,248.267 370.03,248.933 368.5,249.5C 377.484,237.867 383.484,224.867 386.5,210.5 Z"/></g>
<g><path style="opacity:0.302" fill="#a2f7fe" d="M 134.5,228.5 C 141.508,228.334 148.508,228.5 155.5,229C 156.416,229.278 157.082,229.778 157.5,230.5C 149.688,229.931 142.021,229.264 134.5,228.5 Z"/></g>
<g><path style="opacity:0.308" fill="#9af3fb" d="M 489.5,227.5 C 489.082,228.222 488.416,228.722 487.5,229C 479.467,229.263 471.467,229.763 463.5,230.5C 463.918,229.778 464.584,229.278 465.5,229C 473.525,228.699 481.525,228.199 489.5,227.5 Z"/></g>
<g><path style="opacity:1" fill="#66ccdf" d="M 463.5,230.5 C 460.978,232.361 458.478,234.361 456,236.5C 453.582,241.944 451.082,247.277 448.5,252.5C 449.89,245.598 451.89,238.931 454.5,232.5C 457.024,232.571 459.024,231.571 460.5,229.5C 461.417,230.127 462.417,230.461 463.5,230.5 Z"/></g>
<g><path style="opacity:1" fill="#50c6d5" d="M 241.5,230.5 C 244.482,235.794 247.482,241.127 250.5,246.5C 246.064,244.561 243.231,241.228 242,236.5C 241.505,234.527 241.338,232.527 241.5,230.5 Z"/></g>
<g><path style="opacity:1" fill="#52c5d8" d="M 165.5,235.5 C 166.822,235.33 167.989,235.663 169,236.5C 171.837,243.017 174.671,249.517 177.5,256C 176.663,257.011 176.33,258.178 176.5,259.5C 174.935,257.491 173.935,255.157 173.5,252.5C 173.293,249.759 172.293,247.426 170.5,245.5C 168.853,242.205 167.186,238.872 165.5,235.5 Z"/></g>
<g><path style="opacity:0.984" fill="#89e1ec" d="M 250.5,246.5 C 254.167,249.5 257.5,252.833 260.5,256.5C 256.167,254.167 252.833,250.833 250.5,246.5 Z"/></g>
<g><path style="opacity:0.243" fill="#aff3fb" d="M 170.5,245.5 C 172.293,247.426 173.293,249.759 173.5,252.5C 171.707,250.574 170.707,248.241 170.5,245.5 Z"/></g>
<g><path style="opacity:0.82" fill="#87dae7" d="M 448.5,252.5 C 448.065,255.157 447.065,257.491 445.5,259.5C 445.166,256.509 446.166,254.176 448.5,252.5 Z"/></g>
<g><path style="opacity:0.659" fill="#84e1ec" d="M 360.5,257.5 C 359.415,259.587 357.749,260.92 355.5,261.5C 356.585,259.413 358.251,258.08 360.5,257.5 Z"/></g>
<g><path style="opacity:1" fill="#52c8d6" d="M 260.5,256.5 C 264.524,259.531 268.524,262.531 272.5,265.5C 266.195,265.367 262.195,262.367 260.5,256.5 Z"/></g>
<g><path style="opacity:0.671" fill="#8be2ee" d="M 348.5,265.5 C 347.514,267.408 345.848,268.408 343.5,268.5C 344.659,266.75 346.326,265.75 348.5,265.5 Z"/></g>
<g><path style="opacity:1" fill="#72d2e4" d="M 177.5,262.5 C 178.87,262.856 179.87,263.69 180.5,265C 183.01,270.593 183.844,276.426 183,282.5C 182.722,283.416 182.222,284.082 181.5,284.5C 181.59,282.304 181.923,280.137 182.5,278C 181.254,272.68 179.587,267.513 177.5,262.5 Z"/></g>
<g><path style="opacity:0.471" fill="#aaeef5" d="M 286.5,271.5 C 293.848,273.49 301.182,274.823 308.5,275.5C 300.626,276.344 293.293,275.011 286.5,271.5 Z"/></g>
<g><path style="opacity:0.898" fill="#8edfe9" d="M 335.5,271.5 C 333.562,273.163 331.228,273.829 328.5,273.5C 330.599,272.388 332.933,271.721 335.5,271.5 Z"/></g>
<g><path style="opacity:0.69" fill="#82deea" d="M 440.5,271.5 C 439.167,275.833 439.167,280.167 440.5,284.5C 439.003,282.71 438.336,280.544 438.5,278C 438.336,275.456 439.003,273.29 440.5,271.5 Z"/></g>
<g><path style="opacity:0.396" fill="#a8edf9" d="M 181.5,284.5 C 181.771,286.38 181.104,287.713 179.5,288.5C 179.66,286.847 180.326,285.514 181.5,284.5 Z"/></g>
<g><path style="opacity:0.557" fill="#bceef8" d="M 447.5,293.5 C 449.167,294.5 450.5,295.833 451.5,297.5C 449.167,297.167 447.833,295.833 447.5,293.5 Z"/></g>
<g><path style="opacity:0.514" fill="#b0eaf5" d="M 179.5,288.5 C 176.23,293.44 172.23,297.773 167.5,301.5C 170.77,296.56 174.77,292.227 179.5,288.5 Z"/></g>
<g><path style="opacity:1" fill="#88d7e3" d="M 451.5,297.5 C 453.167,298.5 454.5,299.833 455.5,301.5C 452.858,301.512 451.525,300.179 451.5,297.5 Z"/></g>
<g><path style="opacity:0.261" fill="#a7edf5" d="M 167.5,301.5 C 164.506,306.149 163.839,311.149 165.5,316.5C 164.778,316.082 164.278,315.416 164,314.5C 163.333,311.833 163.333,309.167 164,306.5C 164.223,304.119 165.39,302.453 167.5,301.5 Z"/></g>
<g><path style="opacity:0.216" fill="#b6f6f8" d="M 455.5,302.5 C 456.966,303.347 457.8,304.68 458,306.5C 458.796,309.039 458.629,311.372 457.5,313.5C 457.586,309.681 456.919,306.015 455.5,302.5 Z"/></g>
<g><path style="opacity:0.878" fill="#55c9da" d="M 240.5,329.5 C 235.552,328.441 230.552,328.274 225.5,329C 219.373,333.294 213.706,338.127 208.5,343.5C 208.238,342.022 208.571,340.689 209.5,339.5C 211.976,338.191 213.976,336.358 215.5,334C 214.109,332.98 212.609,332.147 211,331.5C 210.383,330.551 210.549,329.718 211.5,329C 213.379,329.405 215.213,330.238 217,331.5C 223.699,327.051 231.199,325.051 239.5,325.5C 239.433,326.959 239.766,328.292 240.5,329.5 Z"/></g>
<g><path style="opacity:1" fill="#68cede" d="M 450.5,323.5 C 444.036,330.465 437.369,337.298 430.5,344C 423.978,347.763 417.978,347.263 412.5,342.5C 415.448,343.32 418.448,343.986 421.5,344.5C 424.423,342.529 427.757,341.529 431.5,341.5C 431.5,340.167 431.5,338.833 431.5,337.5C 433.606,337.321 435.272,336.321 436.5,334.5C 435.397,334.002 434.397,333.669 433.5,333.5C 435.135,332.319 436.802,332.319 438.5,333.5C 440.832,330.841 442.666,327.841 444,324.5C 445.011,325.337 446.178,325.67 447.5,325.5C 447.402,322.752 448.402,322.086 450.5,323.5 Z"/></g>
<g><path style="opacity:0.341" fill="#a2edf6" d="M 376.5,331.5 C 374.574,333.293 372.241,334.293 369.5,334.5C 371.426,332.707 373.759,331.707 376.5,331.5 Z"/></g>
<g><path style="opacity:1" fill="#54c6d9" d="M 264.5,339.5 C 259.265,337.871 254.265,335.871 249.5,333.5C 251.492,333.672 253.158,333.005 254.5,331.5C 255.386,332.325 255.719,333.325 255.5,334.5C 256.873,334.343 258.207,334.51 259.5,335C 261.767,335.894 263.434,337.394 264.5,339.5 Z"/></g>
<g><path style="opacity:1" fill="#56c9db" d="M 204.5,345.5 C 200.111,346.912 195.778,346.412 191.5,344C 187.63,340.298 183.963,336.464 180.5,332.5C 183.4,331.046 184.733,332.046 184.5,335.5C 187.272,335.595 189.272,336.929 190.5,339.5C 191.167,339.167 191.833,338.833 192.5,338.5C 194.554,340.194 196.888,341.361 199.5,342C 198.027,342.71 197.36,343.876 197.5,345.5C 199.833,345.5 202.167,345.5 204.5,345.5 Z"/></g>
<g><path style="opacity:0.992" fill="#91dfea" d="M 264.5,339.5 C 267.491,339.166 269.824,340.166 271.5,342.5C 268.759,342.293 266.426,341.293 264.5,339.5 Z"/></g>
<g><path style="opacity:1" fill="#80d7e5" d="M 357.5,339.5 C 354.744,341.204 351.744,342.537 348.5,343.5C 350.591,340.457 353.591,339.124 357.5,339.5 Z"/></g>
<g><path style="opacity:0.392" fill="#b4eff9" d="M 271.5,342.5 C 273.027,342.427 274.027,343.094 274.5,344.5C 272.973,344.573 271.973,343.906 271.5,342.5 Z"/></g>
<g><path style="opacity:1" fill="#80d9e4" d="M 276.5,346.5 C 280.79,349.132 282.457,353.132 281.5,358.5C 280.631,354.241 278.964,350.241 276.5,346.5 Z"/></g>
<g><path style="opacity:1" fill="#54c7d9" d="M 341.5,353.5 C 340.768,361.133 340.268,368.8 340,376.5C 338.988,380.008 336.822,382.342 333.5,383.5C 333.389,382.883 333.056,382.383 332.5,382C 333.624,381.751 334.624,381.251 335.5,380.5C 334.758,378.65 333.758,377.984 332.5,378.5C 334.045,377.548 335.712,377.215 337.5,377.5C 339.092,370.026 339.925,362.36 340,354.5C 340.383,353.944 340.883,353.611 341.5,353.5 Z"/></g>
<g><path style="opacity:0.864" fill="#59c8db" d="M 333.5,383.5 C 333.082,384.222 332.416,384.722 331.5,385C 317.833,385.667 304.167,385.667 290.5,385C 285.04,383.046 282.04,379.212 281.5,373.5C 282.117,373.389 282.617,373.056 283,372.5C 283.873,376.81 285.706,380.477 288.5,383.5C 303.486,384.779 318.486,384.779 333.5,383.5 Z"/></g>
</svg>
